<?xml version="1.0" encoding="utf-8"?>
<!-- Generator: Adobe Illustrator 18.1.1, SVG Export Plug-In . SVG Version: 6.00 Build 0)  -->
<svg version="1.1" id="Layer_1" xmlns="http://www.w3.org/2000/svg" xmlns:xlink="http://www.w3.org/1999/xlink" x="0px" y="0px"
	 viewBox="0 0 232 232" enable-background="new 0 0 232 232" xml:space="preserve">
<g>
	<g>
		<path d="M83.6,135.4c1.5,0,2.5-0.7,3-2.2s0.7-3.7,0.7-6.6c0-2.9-0.2-5.1-0.7-6.6s-1.4-2.2-3-2.2c-1.5,0-2.5,0.7-2.9,2.2
			c-0.5,1.5-0.7,3.7-0.7,6.6c0,2.9,0.3,5.1,0.7,6.6C81.1,134.7,82.1,135.4,83.6,135.4z M38.8,118.8c-0.2-0.6-0.6-1-1-1.2
			c-0.5-0.3-1-0.4-1.7-0.4c-0.7,0-1.3,0.2-1.7,0.5c-0.4,0.3-0.8,0.7-1.1,1.2s-0.5,1.1-0.6,1.7c-0.1,0.6-0.2,1.3-0.2,1.9v1h7
			c0-1-0.1-1.9-0.2-2.7C39.2,120,39,119.3,38.8,118.8z M133.3,127.9c-1.4,0.3-2.4,0.8-3,1.5c-0.6,0.7-0.9,1.6-0.9,2.8
			c0,1,0.2,1.9,0.6,2.7c0.4,0.7,1.1,1.1,2,1.1c0.5,0,1-0.1,1.5-0.2c0.5-0.2,1-0.4,1.4-0.7c0.4-0.3,0.8-0.8,1-1.3
			c0.3-0.5,0.4-1.2,0.4-1.9v-5.3c-0.4,0.3-0.9,0.6-1.5,0.8C134.3,127.6,133.8,127.8,133.3,127.9z M105.7,126.6
			c0,2.9,0.2,5.1,0.7,6.6s1.4,2.2,3,2.2c1.5,0,2.5-0.7,2.9-2.2c0.5-1.5,0.7-3.7,0.7-6.6c0-2.9-0.2-5.1-0.7-6.6
			c-0.4-1.5-1.4-2.2-2.9-2.2s-2.5,0.7-3,2.2S105.7,123.7,105.7,126.6z M58,136c0.5,0,0.9-0.1,1.4-0.2c0.5-0.2,1-0.4,1.4-0.7
			c0.4-0.3,0.8-0.8,1-1.3c0.3-0.5,0.4-1.2,0.4-1.9v-5.3c-0.4,0.3-0.9,0.6-1.4,0.8c-0.5,0.2-1,0.4-1.5,0.5c-1.4,0.3-2.4,0.8-3,1.5
			c-0.6,0.7-0.9,1.6-0.9,2.8c0,1,0.2,1.9,0.6,2.7C56.4,135.7,57.1,136,58,136z M210.1,118.8c-0.2-0.6-0.6-1-1.1-1.2
			c-0.4-0.3-1-0.4-1.7-0.4c-0.7,0-1.3,0.2-1.7,0.5c-0.5,0.3-0.8,0.7-1.1,1.2s-0.5,1.1-0.6,1.7c-0.1,0.6-0.2,1.3-0.2,1.9v1h7
			c0.1-1,0-1.9-0.1-2.7C210.5,120,210.3,119.3,210.1,118.8z M182.8,117.7c-0.8,0-1.4,0.2-1.8,0.5c-0.5,0.3-0.8,0.9-1.1,1.6
			c-0.3,0.7-0.4,1.8-0.5,3c-0.1,1.2-0.1,2.8-0.1,4.6c-0.1,0.9-0.1,1.8,0,2.7c0.1,0.8,0.2,1.6,0.5,2.2c0.2,0.6,0.6,1.2,1,1.5
			c0.5,0.4,1,0.6,1.8,0.6c0.8,0,1.3-0.2,1.8-0.6c0.5-0.4,0.9-0.9,1.2-1.6c0.3-0.7,0.5-1.5,0.6-2.4c0.1-1,0.2-2,0.2-3.1
			c0-3.3-0.3-5.6-0.8-7C185.1,118.3,184.1,117.7,182.8,117.7z M227.7,116.7c0.7-1.3,1.5-2.3,2.5-3.1c0.5-0.4,1.1-0.7,1.8-0.9V0H0
			v232h232V119.1c-0.3,0-0.6,0.1-0.9,0.1c-0.6,0.2-1.2,0.4-1.7,0.8s-0.9,0.9-1.2,1.5s-0.5,1.4-0.5,2.3V140H221v-26.9h6.6
			L227.7,116.7L227.7,116.7z M147.9,113.1h6.5v3.2h0.1c0.7-1.3,1.7-2.3,2.8-2.9c1.2-0.6,2.5-0.9,4-0.9c2.2,0,3.9,0.6,5.1,1.8
			s1.8,3.1,1.8,5.9v20h-6.9v-18.5c0-1.4-0.2-2.4-0.7-2.9c-0.5-0.6-1.2-0.8-2.2-0.8c-2.4,0-3.6,1.5-3.6,4.5V140h-6.9V113.1z
			 M131.5,69h2.9l4.9,10H136l-3.1-6.4l-3.1,6.4h-3.2L131.5,69z M126.5,114.2c0.9-0.6,1.9-1.1,3-1.4c1.2-0.3,2.4-0.4,3.7-0.4
			c2.1,0,3.7,0.2,5,0.6c1.3,0.4,2.2,1,2.9,1.7c0.7,0.7,1.2,1.6,1.4,2.6s0.4,2.1,0.4,3.3v14.1c0,1.3,0.1,2.2,0.2,3
			c0.1,0.7,0.3,1.5,0.7,2.2h-6.6c-0.2-0.4-0.4-0.9-0.5-1.4c-0.1-0.5-0.2-1-0.3-1.4h-0.1c-0.8,1.4-1.7,2.3-2.8,2.7
			c-1,0.4-2.4,0.6-4.1,0.6c-1.2,0-2.2-0.2-3-0.6c-0.8-0.4-1.5-1-2-1.7c-0.5-0.7-0.9-1.6-1.1-2.5c-0.2-0.9-0.4-1.8-0.4-2.7
			c0-1.3,0.1-2.4,0.4-3.3c0.3-0.9,0.7-1.7,1.2-2.3c0.6-0.7,1.2-1.2,2.1-1.6c0.8-0.4,1.9-0.8,3.1-1.2l3.9-1c1-0.3,1.8-0.6,2.2-1.1
			c0.4-0.5,0.6-1.2,0.6-2c0-1-0.2-1.8-0.7-2.4s-1.3-0.9-2.5-0.9c-1.1,0-1.9,0.3-2.4,1c-0.5,0.6-0.8,1.5-0.8,2.5v0.8h-6.2v-0.7h-0.1
			c0-1.6,0.2-2.9,0.8-3.9C125,115.7,125.7,114.9,126.5,114.2z M115.9,69h2.9l4.9,10h-3.2l-3.1-6.4l-3.1,6.4H111L115.9,69z
			 M111.6,112.4c2.8,0,4.9,1.1,6.2,3.3s2,5.8,2,10.8s-0.7,8.6-2,10.8s-3.4,3.2-6.2,3.2c-1.4,0-2.6-0.2-3.5-0.8
			c-1-0.5-1.8-1.4-2.6-2.6h-0.1v2.8h-6.6v-35.7h6.9v11.4h0.1c0.7-1.1,1.6-1.9,2.5-2.4C109.2,112.7,110.3,112.4,111.6,112.4z
			 M100.3,69h2.9l4.9,10h-3.2l-3.1-6.4L98.6,79h-3.2L100.3,69z M75.2,115.8c1.3-2.2,3.4-3.3,6.2-3.3c1.3,0,2.4,0.3,3.3,0.8
			s1.7,1.3,2.5,2.4h0.1v-11.3h6.9V140h-6.6v-2.8h-0.1c-0.8,1.3-1.6,2.1-2.6,2.6c-0.9,0.5-2.1,0.8-3.5,0.8c-2.8,0-4.9-1.1-6.2-3.2
			c-1.3-2.2-2-5.8-2-10.8S73.9,118,75.2,115.8z M22.1,140.1h-6.9v-18.5c0-1.4-0.2-2.4-0.7-2.9c-0.5-0.6-1.2-0.8-2.2-0.8
			c-2.4,0-3.6,1.5-3.6,4.5V140H1.6v-35.7h6.9v11.5h0.1c1.3-2.3,3.5-3.4,6.6-3.4c2.2,0,3.9,0.6,5.1,1.8s1.8,3.1,1.8,5.9V140.1z
			 M46.1,127.8H32.5v2c0,0.8,0.1,1.6,0.2,2.3c0.1,0.8,0.3,1.4,0.6,2c0.3,0.6,0.6,1,1,1.4c0.4,0.4,1,0.5,1.6,0.5c1.2,0,2-0.4,2.5-1.2
			s0.9-2.1,1.1-3.8h6.2c-0.1,3.1-1,5.5-2.5,7.1c-1.5,1.6-4,2.5-7.2,2.5c-2.5,0-4.5-0.4-5.9-1.2c-1.4-0.8-2.4-1.9-3.1-3.3
			c-0.7-1.4-1.1-2.9-1.2-4.6c-0.1-1.7-0.2-3.4-0.2-5.1c0-1.8,0.1-3.5,0.4-5.2c0.2-1.7,0.8-3.1,1.5-4.4c0.8-1.3,1.8-2.3,3.2-3.1
			c1.4-0.8,3.3-1.1,5.6-1.1c2,0,3.6,0.3,4.9,1c1.3,0.7,2.3,1.6,3,2.8c0.7,1.2,1.2,2.6,1.5,4.3s0.4,3.6,0.4,5.6V127.8z M50.4,138.1
			c-0.5-0.7-0.9-1.6-1.1-2.5c-0.2-0.9-0.4-1.8-0.4-2.7c0-1.3,0.1-2.4,0.4-3.3c0.3-0.9,0.7-1.7,1.2-2.3c0.6-0.7,1.2-1.2,2.1-1.6
			c0.9-0.4,1.9-0.8,3.1-1.2l3.9-1c1-0.3,1.8-0.6,2.1-1.1s0.6-1.2,0.6-2c0-1-0.2-1.8-0.7-2.4s-1.3-0.9-2.5-0.9c-1.1,0-1.9,0.3-2.4,1
			c-0.5,0.6-0.8,1.5-0.8,2.5v0.8h-6.2v-0.7c0-1.6,0.2-2.9,0.8-3.9c0.5-1.1,1.2-1.9,2-2.6c0.9-0.6,1.9-1.1,3-1.4s2.4-0.4,3.7-0.4
			c2.1,0,3.7,0.2,5,0.6c1.3,0.4,2.2,1,2.9,1.7c0.7,0.7,1.2,1.6,1.4,2.6s0.4,2.1,0.4,3.3v14.1c0,1.3,0.1,2.2,0.2,3
			c0.1,0.7,0.3,1.5,0.7,2.2h-6.6c-0.2-0.4-0.4-0.9-0.5-1.4c-0.1-0.5-0.2-1-0.3-1.4h-0.1c-0.8,1.4-1.7,2.3-2.8,2.7
			c-1.1,0.4-2.4,0.6-4.1,0.6c-1.2,0-2.2-0.2-3-0.6C51.6,139.4,50.9,138.8,50.4,138.1z M179.8,167.1h-125v-2.5h125V167.1z
			 M190.4,146.5c-1.7,1.7-4.6,2.6-8.6,2.6c-2.9,0-5.2-0.6-6.8-1.9c-1.6-1.3-2.4-3-2.4-5.3h6.6c0,0.9,0.3,1.6,1,2.1
			c0.3,0.2,0.7,0.4,1.1,0.5c0.4,0.1,0.8,0.2,1.2,0.2c1.4,0,2.4-0.5,3-1.4c0.6-0.9,0.8-2,0.8-3.3v-3.5h-0.1c-0.7,1-1.6,1.8-2.6,2.4
			c-1,0.6-2.1,0.9-3.2,0.9c-2.7,0-4.8-1-6.2-3.1c-1.4-2.1-2.1-5.6-2.1-10.5c0-1.6,0.1-3.2,0.3-4.8c0.2-1.6,0.6-3.1,1.1-4.4
			c0.6-1.3,1.4-2.4,2.5-3.2c1.1-0.8,2.6-1.2,4.5-1.2c1,0,2,0.3,3,0.8s1.9,1.5,2.5,2.9h0.1v-3h6.6v25.4h0.3
			C193,142.2,192.1,144.8,190.4,146.5z M217.4,127.8h-13.6v2h-0.1c0,0.8,0.1,1.6,0.2,2.3c0.1,0.8,0.3,1.4,0.6,2c0.3,0.6,0.6,1,1,1.4
			c0.4,0.4,1,0.5,1.6,0.5c1.2,0,2-0.4,2.6-1.2c0.5-0.8,0.9-2.1,1.1-3.8h6.2c-0.1,3.1-1,5.5-2.5,7.1c-1.5,1.6-4,2.5-7.2,2.5
			c-2.5,0-4.5-0.4-5.9-1.2c-1.4-0.8-2.4-1.9-3.1-3.3c-0.7-1.4-1.1-2.9-1.2-4.6c-0.2-1.7-0.2-3.4-0.2-5.1c0-1.8,0.1-3.5,0.4-5.2
			c0.2-1.7,0.8-3.1,1.5-4.4c0.8-1.3,1.8-2.3,3.2-3.1c1.4-0.8,3.3-1.1,5.6-1.1c2,0,3.6,0.3,4.9,1c1.3,0.7,2.3,1.6,3,2.8
			c0.7,1.2,1.2,2.6,1.5,4.3c0.3,1.7,0.4,3.6,0.4,5.6V127.8z"/>
	</g>
</g>
</svg>
