<?xml version="1.0" encoding="utf-8"?>
<!-- Generator: Adobe Illustrator 18.1.1, SVG Export Plug-In . SVG Version: 6.00 Build 0)  -->
<svg version="1.1" id="Layer_1" xmlns="http://www.w3.org/2000/svg" xmlns:xlink="http://www.w3.org/1999/xlink" x="0px" y="0px"
	 viewBox="0 0 232 232" enable-background="new 0 0 232 232" xml:space="preserve">
<g>
	<g>
		<path d="M132.9,136c0.5,0,1-0.1,1.5-0.2c0.5-0.2,1-0.4,1.4-0.7c0.4-0.3,0.8-0.8,1-1.3c0.3-0.5,0.4-1.2,0.4-1.9v-5.3
			c-0.4,0.3-0.9,0.6-1.5,0.8c-0.5,0.2-1,0.4-1.5,0.5c-1.4,0.3-2.4,0.8-3,1.5c-0.6,0.7-0.9,1.6-0.9,2.8c0,1,0.2,1.9,0.6,2.7
			C131.3,135.6,132,136,132.9,136z M0,0v232h232V0H0z M148.8,113.1h6.5v3.2h0.1c0.7-1.3,1.7-2.3,2.8-2.9c1.2-0.6,2.5-0.9,4-0.9
			c2.2,0,3.9,0.6,5.1,1.8c1.2,1.2,1.8,3.1,1.8,5.9v20h-6.9v-18.5c0-1.4-0.2-2.4-0.7-2.9c-0.5-0.6-1.2-0.8-2.2-0.8
			c-2.4,0-3.6,1.5-3.6,4.5V140h-6.9V113.1z M131.5,69h2.9l4.9,10H136l-3.1-6.4l-3.1,6.4h-3.2L131.5,69z M124.2,129.6
			c0.3-0.9,0.7-1.7,1.2-2.3c0.6-0.7,1.2-1.2,2.1-1.6c0.8-0.4,1.9-0.8,3.1-1.2l3.9-1c1-0.3,1.8-0.6,2.2-1.1c0.4-0.5,0.6-1.2,0.6-2
			c0-1-0.2-1.8-0.7-2.4s-1.3-0.9-2.5-0.9c-1.1,0-1.9,0.3-2.4,1c-0.5,0.6-0.8,1.5-0.8,2.5v0.8h-6.2v-0.7h-0.1c0-1.6,0.2-2.9,0.8-3.9
			c0.5-1.1,1.2-1.9,2-2.6c0.9-0.6,1.9-1.1,3-1.4c1.2-0.3,2.4-0.4,3.7-0.4c2.1,0,3.7,0.2,5,0.6c1.3,0.4,2.2,1,2.9,1.7
			c0.7,0.7,1.2,1.6,1.4,2.6c0.2,1,0.4,2.1,0.4,3.3v14.1c0,1.3,0.1,2.2,0.2,3c0.1,0.7,0.3,1.5,0.7,2.2h-6.6c-0.2-0.4-0.4-0.9-0.5-1.4
			c-0.1-0.5-0.2-1-0.3-1.4h-0.1c-0.8,1.4-1.7,2.3-2.8,2.7c-1,0.4-2.4,0.6-4.1,0.6c-1.2,0-2.2-0.2-3-0.6c-0.8-0.4-1.5-1-2-1.7
			c-0.5-0.7-0.9-1.6-1.1-2.5c-0.2-0.9-0.4-1.8-0.4-2.7C123.8,131.6,123.9,130.5,124.2,129.6z M115.9,69h2.9l4.9,10h-3.2l-3.1-6.4
			l-3.1,6.4H111L115.9,69z M108.1,117.8v-4.7h3.5v-7.7h6.7v7.7h4v4.7h-4v14.5c0,1.1,0.2,1.8,0.5,2.3c0.3,0.5,1,0.7,2,0.7h0.8
			c0.3,0,0.5,0,0.8-0.1v4.8c-0.8,0-1.5,0-2.2,0.1c-0.7,0-1.5,0.1-2.3,0.1c-1.3,0-2.4-0.1-3.3-0.3c-0.8-0.2-1.5-0.5-1.9-1.1
			c-0.5-0.6-0.8-1.3-0.9-2.2c-0.2-0.9-0.2-2-0.2-3.4v-15.4H108.1z M100.3,69h2.9l4.9,10h-3.2l-3.1-6.4L98.6,79h-3.2L100.3,69z
			 M86.1,131h6.2v1.1h0.4c0,1.2,0.3,2.1,0.9,2.8c0.6,0.7,1.5,1.1,2.7,1.1c1.1,0,1.9-0.3,2.5-0.8c0.6-0.5,1-1.3,1-2.4
			c0-0.9-0.2-1.5-0.8-2c-0.6-0.5-1.1-0.8-1.8-1.1l-4.9-1.8c-1.9-0.7-3.3-1.6-4.3-2.8c-1-1.2-1.4-2.8-1.4-4.7c0-1.1,0.2-2.1,0.5-3.1
			c0.4-1,1-1.8,1.8-2.6c0.8-0.7,1.8-1.3,3.1-1.8c1.2-0.4,2.8-0.6,4.5-0.6c3.1,0,5.5,0.7,7,2c1.5,1.3,2.2,3.2,2.2,5.6v1.1h-6.2
			c0-1.4-0.2-2.4-0.7-3.1c-0.5-0.7-1.2-1-2.4-1c-0.9,0-1.6,0.2-2.3,0.7c-0.6,0.5-1,1.2-1,2.2c0,0.7,0.2,1.3,0.6,1.8
			c0.4,0.5,1.2,1,2.4,1.4l4.1,1.4c2.2,0.7,3.7,1.7,4.6,2.9s1.3,2.8,1.3,4.8c0,1.4-0.2,2.7-0.8,3.7c-0.5,1.1-1.2,1.9-2.1,2.6
			c-0.9,0.7-1.9,1.2-3.1,1.5c-1.2,0.3-2.6,0.5-4,0.5c-1.9,0-3.5-0.2-4.8-0.5c-1.3-0.4-2.3-0.9-3.1-1.7c-0.8-0.7-1.3-1.6-1.6-2.7
			c-0.3-1-0.5-2.2-0.5-3.5V131z M62.9,113.1h6.4v3.2h0.1c0.7-1.3,1.7-2.3,2.9-2.9c1.2-0.6,2.5-0.9,4-0.9c2.2,0,3.9,0.6,5.1,1.8
			c1.2,1.2,1.8,3.1,1.8,5.9v20h-6.9v-18.5c0-1.4-0.2-2.4-0.7-2.9c-0.5-0.6-1.2-0.8-2.2-0.8c-2.4,0-3.6,1.5-3.6,4.5V140h-6.9V113.1z
			 M50.9,103.9h6.9v5.9h-6.9V103.9z M50.9,113.1h6.9V140h-6.9V113.1z M179.8,167.1h-125v-2.5h125V167.1z M186.2,140
			c-0.8,0-1.5,0-2.2,0.1c-0.7,0.1-1.5,0.1-2.3,0.1c-1.3,0-2.4-0.1-3.3-0.3c-0.8-0.2-1.5-0.5-2-1.1c-0.4-0.6-0.8-1.3-0.9-2.2
			c-0.2-0.9-0.2-2-0.2-3.4v-15.4h-3.5v-4.7h3.5v-7.7h6.8v7.7h4v4.7h-4v14.5c0,1.1,0.2,1.8,0.5,2.3c0.3,0.5,1,0.7,2,0.7h0.8
			c0.3,0,0.5,0,0.8-0.1V140z"/>
	</g>
</g>
</svg>
