<?xml version="1.0" encoding="utf-8"?>
<!-- Generator: Adobe Illustrator 18.1.1, SVG Export Plug-In . SVG Version: 6.00 Build 0)  -->
<svg version="1.1" id="Layer_1" xmlns="http://www.w3.org/2000/svg" xmlns:xlink="http://www.w3.org/1999/xlink" x="0px" y="0px"
	 viewBox="0 0 232 232" enable-background="new 0 0 232 232" xml:space="preserve">
<g>
	<g>
		<path d="M0,0v232h232V0H0z M149.5,113.4c1.3,0.7,2.3,1.6,3,2.8c0.7,1.2,1.2,2.6,1.5,4.3c0.3,1.7,0.4,3.6,0.4,5.6v1.5h-13.6v2.2
			c0,0.8,0.1,1.6,0.2,2.3c0.1,0.8,0.3,1.4,0.6,2c0.3,0.6,0.6,1,1,1.4c0.4,0.4,1,0.5,1.6,0.5c1.2,0,2-0.4,2.5-1.2
			c0.5-0.8,0.9-2.1,1.1-3.8h6.2c-0.1,3.1-1,5.5-2.5,7.1c-1.5,1.6-4,2.5-7.2,2.5c-2.5,0-4.5-0.4-5.9-1.2c-1.4-0.8-2.4-1.9-3.1-3.3
			c-0.7-1.4-1.1-2.9-1.2-4.6c-0.1-1.7-0.2-3.4-0.2-5.1c0-1.8,0.1-3.5,0.4-5.2c0.2-1.7,0.8-3.1,1.5-4.4c0.8-1.3,1.8-2.3,3.2-3.1
			c1.4-0.8,3.3-1.1,5.6-1.1C146.5,112.4,148.2,112.7,149.5,113.4z M131.5,69h2.9l4.9,10H136l-3.1-6.4l-3.1,6.4h-3.2L131.5,69z
			 M130,104.3V140h-6.9v-35.7H130z M115.9,69h2.9l4.9,10h-3.2l-3.1-6.4l-3.1,6.4H111L115.9,69z M109.5,105.4h6.9v7.7h4v4.7h-4v14.5
			c0,1.1,0.2,1.8,0.5,2.3c0.3,0.5,1,0.7,2,0.7c0.3,0,0.5,0,0.8,0c0.3,0,0.5,0,0.8-0.1v4.8c-0.8,0-1.5,0-2.2,0.1
			c-0.7,0-1.5,0.1-2.3,0.1c-1.3,0-2.4-0.1-3.3-0.3c-0.8-0.2-1.5-0.5-1.9-1.1c-0.5-0.6-0.8-1.3-0.9-2.2c-0.2-0.9-0.2-2-0.2-3.4v-15.4
			H106v-4.7h3.5V105.4z M100.3,69h2.9l4.9,10h-3.2l-3.1-6.4L98.6,79h-3.2L100.3,69z M96.3,109.8v-5.9h6.9v5.9H96.3z M103.2,113.1
			V140h-6.9v-26.9H103.2z M79.2,113.1h3.5v-7.7h6.9v7.7h4v4.7h-4v14.5c0,1.1,0.2,1.8,0.5,2.3c0.3,0.5,1,0.7,2,0.7c0.3,0,0.5,0,0.8,0
			c0.3,0,0.5,0,0.8-0.1v4.8c-0.8,0-1.5,0-2.2,0.1c-0.7,0-1.5,0.1-2.3,0.1c-1.3,0-2.4-0.1-3.3-0.3c-0.8-0.2-1.5-0.5-1.9-1.1
			c-0.5-0.6-0.8-1.3-0.9-2.2c-0.2-0.9-0.2-2-0.2-3.4v-15.4h-3.5V113.1z M179.8,167.1h-125v-2.5h125V167.1z M147.6,120.8
			c-0.1-0.8-0.3-1.5-0.5-2c-0.2-0.6-0.6-1-1-1.2s-1-0.4-1.7-0.4s-1.3,0.2-1.7,0.5c-0.4,0.3-0.8,0.7-1.1,1.2
			c-0.3,0.5-0.5,1.1-0.6,1.7c-0.1,0.6-0.2,1.3-0.2,1.9v1h7C147.8,122.5,147.7,121.6,147.6,120.8z"/>
	</g>
</g>
<g>
</g>
<g>
</g>
<g>
</g>
<g>
</g>
<g>
</g>
<g>
</g>
<g>
</g>
<g>
</g>
<g>
</g>
<g>
</g>
<g>
</g>
<g>
</g>
<g>
</g>
<g>
</g>
<g>
</g>
</svg>
