<?xml version="1.0" encoding="utf-8"?>
<!-- Generator: Adobe Illustrator 18.1.1, SVG Export Plug-In . SVG Version: 6.00 Build 0)  -->
<svg version="1.1" id="Layer_1" xmlns="http://www.w3.org/2000/svg" xmlns:xlink="http://www.w3.org/1999/xlink" x="0px" y="0px"
	 viewBox="0 0 232 232" enable-background="new 0 0 232 232" xml:space="preserve">
<g>
	<g>
		<path d="M0,0v232h232V0H0z M149.4,120.1c-0.6-0.5-1.2-1.1-1.6-1.7c-0.4-0.6-0.7-1.3-0.9-2c-0.2-0.7-0.2-1.4-0.2-2
			c0-3.5,0.9-6,2.8-7.5c1.8-1.5,4.4-2.3,7.6-2.3s5.8,0.8,7.6,2.3c1.8,1.5,2.8,4,2.8,7.5c0,0.6-0.1,1.3-0.3,2c-0.2,0.7-0.5,1.4-0.9,2
			c-0.4,0.6-0.9,1.2-1.6,1.7c-0.6,0.5-1.4,0.9-2.4,1.1v0.1c2,0.4,3.5,1.4,4.5,3c1,1.6,1.5,3.5,1.5,5.8c0,1-0.1,2.2-0.4,3.4
			s-0.8,2.4-1.6,3.4c-0.8,1.1-1.9,2-3.4,2.7s-3.5,1-5.9,1c-2.5,0-4.4-0.3-5.9-1s-2.6-1.6-3.4-2.7c-0.8-1.1-1.3-2.2-1.6-3.4
			c-0.3-1.2-0.4-2.4-0.4-3.4c0.1-2.3,0.6-4.2,1.6-5.8c1-1.6,2.5-2.6,4.5-3v-0.1C150.8,121,150,120.6,149.4,120.1z M131.5,69h2.9
			l4.9,10H136l-3.1-6.4l-3.1,6.4h-3.2L131.5,69z M123.8,131.1h6.2v1h0.2c0,1.2,0.3,2.1,0.9,2.8c0.6,0.7,1.5,1.1,2.7,1.1
			c1.1,0,1.9-0.3,2.5-0.8c0.6-0.5,1-1.3,1-2.4c0-0.9-0.2-1.5-0.8-2c-0.6-0.5-1.1-0.8-1.8-1.1L130,128c-1.9-0.7-3.3-1.6-4.3-2.8
			s-1.5-2.8-1.5-4.7c0-1.1,0.2-2.1,0.5-3.1c0.4-1,1-1.8,1.8-2.6c0.8-0.7,1.8-1.3,3.1-1.8c1.2-0.4,2.8-0.6,4.5-0.6c3.1,0,5.5,0.7,7,2
			c1.5,1.3,2.2,3.2,2.2,5.6v1.1h-6.2c0-1.4-0.2-2.4-0.7-3.1s-1.2-1-2.4-1c-0.9,0-1.6,0.2-2.3,0.7s-1,1.2-1,2.2
			c0,0.7,0.2,1.3,0.6,1.8c0.4,0.5,1.2,1,2.4,1.4l4.1,1.4c2.2,0.7,3.7,1.7,4.6,2.9c0.9,1.2,1.3,2.8,1.3,4.8c0,1.4-0.2,2.7-0.8,3.7
			c-0.5,1.1-1.2,1.9-2.1,2.6c-0.9,0.7-1.9,1.2-3.1,1.5s-2.6,0.5-4,0.5c-1.9,0-3.5-0.2-4.8-0.5s-2.3-0.9-3-1.7
			c-0.8-0.7-1.3-1.6-1.6-2.7c-0.3-1.1-0.5-2.2-0.5-3.5V131.1z M115.9,69h2.9l4.9,10h-3.2l-3.1-6.4l-3.1,6.4H111L115.9,69z
			 M113.4,109.8v-5.9h6.9v5.9H113.4z M120.3,113.1V140h-6.9v-26.9H120.3z M100.3,69h2.9l4.9,10h-3.2l-3.1-6.4L98.6,79h-3.2L100.3,69
			z M89.4,121.2c0.2-1.7,0.8-3.1,1.5-4.4c0.8-1.3,1.8-2.3,3.2-3.1c1.4-0.8,3.3-1.1,5.6-1.1c2,0,3.6,0.3,4.9,1c1.3,0.7,2.3,1.6,3,2.8
			c0.7,1.2,1.2,2.6,1.5,4.3c0.3,1.7,0.4,3.6,0.4,5.6v1.5H95.9v2c0,0.8,0.1,1.6,0.2,2.3c0.1,0.8,0.3,1.4,0.6,2c0.3,0.6,0.6,1,1,1.4
			c0.4,0.4,1,0.5,1.6,0.5c1.2,0,2-0.4,2.5-1.2s0.9-2.1,1.1-3.8h6.2c-0.1,3.1-1,5.5-2.5,7.1c-1.5,1.6-4,2.5-7.2,2.5
			c-2.5,0-4.5-0.4-5.9-1.2c-1.4-0.8-2.4-1.9-3.1-3.3c-0.7-1.4-1.1-2.9-1.2-4.6c-0.1-1.7-0.2-3.4-0.2-5.1
			C89,124.6,89.1,122.9,89.4,121.2z M66.3,131h6.2v1.1h0.4c0,1.2,0.3,2.1,0.9,2.8c0.6,0.7,1.5,1.1,2.7,1.1c1.1,0,1.9-0.3,2.5-0.8
			s1-1.3,1-2.4c0-0.9-0.2-1.5-0.8-2c-0.6-0.5-1.1-0.8-1.8-1.1l-4.9-1.8c-1.9-0.7-3.3-1.6-4.3-2.8c-1-1.2-1.4-2.8-1.4-4.7
			c0-1.1,0.2-2.1,0.5-3.1c0.4-1,1-1.8,1.8-2.6c0.8-0.7,1.8-1.3,3.1-1.8c1.2-0.4,2.8-0.6,4.5-0.6c3.1,0,5.5,0.7,7,2
			c1.5,1.3,2.2,3.2,2.2,5.6v1.1h-6.2c0-1.4-0.2-2.4-0.7-3.1c-0.5-0.7-1.2-1-2.4-1c-0.9,0-1.6,0.2-2.3,0.7c-0.6,0.5-1,1.2-1,2.2
			c0,0.7,0.2,1.3,0.6,1.8c0.4,0.5,1.2,1,2.4,1.4l4.1,1.4c2.2,0.7,3.7,1.7,4.6,2.9c0.9,1.2,1.3,2.8,1.3,4.8c0,1.4-0.2,2.7-0.8,3.7
			c-0.5,1.1-1.2,1.9-2.1,2.6c-0.9,0.7-1.9,1.2-3.1,1.5c-1.2,0.3-2.6,0.5-4,0.5c-1.9,0-3.5-0.2-4.8-0.5c-1.3-0.4-2.3-0.9-3.1-1.7
			c-0.8-0.7-1.3-1.6-1.6-2.7c-0.3-1-0.5-2.2-0.5-3.5V131z M179.8,167.1h-125v-2.5h125V167.1z M102.8,120.8c-0.1-0.8-0.3-1.5-0.5-2
			c-0.2-0.6-0.6-1-1-1.2c-0.5-0.3-1-0.4-1.7-0.4c-0.7,0-1.3,0.2-1.7,0.5c-0.4,0.3-0.8,0.7-1.1,1.2c-0.3,0.5-0.5,1.1-0.6,1.7
			c-0.1,0.6-0.2,1.3-0.2,1.9v1h7C103,122.5,102.9,121.6,102.8,120.8z M153.8,134.2c0.3,0.6,0.7,1,1.3,1.3c0.5,0.3,1.2,0.5,2,0.5
			c0.8,0,1.5-0.2,2-0.5s1-0.8,1.3-1.3s0.5-1.2,0.6-1.9c0.1-0.8,0.2-1.5,0.2-2.4c0-0.9-0.1-1.7-0.2-2.4c-0.1-0.7-0.3-1.4-0.6-1.9
			s-0.7-1-1.3-1.3c-0.6-0.3-1.2-0.5-2-0.5c-0.8,0-1.5,0.2-2,0.5s-1,0.8-1.3,1.3c-0.3,0.5-0.5,1.2-0.6,1.9c-0.1,0.7-0.2,1.5-0.2,2.4
			c0,0.8,0,1.6,0.2,2.4C153.3,133.1,153.5,133.7,153.8,134.2z M157,119.1c1.1,0,1.9-0.4,2.5-1.2c0.6-0.8,1-2.1,1-3.8
			c0-3.2-1.2-4.9-3.5-4.9s-3.5,1.6-3.5,4.9c0.1,1.8,0.4,3,1,3.8C155.1,118.7,156,119.1,157,119.1z"/>
	</g>
</g>
</svg>
