<?xml version="1.0" encoding="utf-8"?>
<!-- Generator: Adobe Illustrator 18.1.1, SVG Export Plug-In . SVG Version: 6.00 Build 0)  -->
<svg version="1.1" id="Layer_1" xmlns="http://www.w3.org/2000/svg" xmlns:xlink="http://www.w3.org/1999/xlink" x="0px" y="0px"
	 viewBox="0 0 232 232" enable-background="new 0 0 232 232" xml:space="preserve">
<rect width="232" height="232"/>
<g>
	<path fill="#FFFFFF" d="M100.3,69h2.9l4.9,10h-3.2l-3.1-6.4L98.6,79h-3.2L100.3,69z"/>
	<path fill="#FFFFFF" d="M115.9,69h2.9l4.9,10h-3.2l-3.1-6.4l-3.1,6.4H111L115.9,69z"/>
	<path fill="#FFFFFF" d="M131.5,69h2.9l4.9,10H136l-3.1-6.4l-3.1,6.4h-3.2L131.5,69z"/>
	<path fill="#FFFFFF" d="M47.3,117.8v-4.7h3.5v-3c0-1.2,0.2-2.2,0.5-3c0.3-0.8,0.8-1.5,1.4-2c0.6-0.5,1.4-0.9,2.3-1.1
		c0.9-0.2,1.9-0.3,3-0.3c1.2,0,2.5,0,3.7,0.1v4.9c-0.2,0-0.4,0-0.7,0h-0.6c-1,0-1.6,0.2-2.1,0.5c-0.4,0.3-0.6,0.9-0.6,1.6v2.3h4v4.7
		h-4V140h-6.9v-22.2H47.3z"/>
	<path fill="#FFFFFF" d="M71.2,104.3V140h-6.9v-35.7H71.2z"/>
	<path fill="#FFFFFF" d="M76,120.7c0-1.6,0.2-2.9,0.8-3.9c0.5-1.1,1.2-1.9,2-2.6c0.9-0.6,1.9-1.1,3-1.4s2.4-0.4,3.7-0.4
		c2.1,0,3.7,0.2,5,0.6c1.3,0.4,2.2,1,2.9,1.7c0.7,0.7,1.2,1.6,1.4,2.6c0.2,1,0.4,2.1,0.4,3.3v14.1c0,1.3,0.1,2.2,0.2,3
		c0.1,0.7,0.3,1.5,0.7,2.2h-6.6c-0.2-0.4-0.4-0.9-0.5-1.4c-0.1-0.5-0.2-1-0.3-1.4h-0.1c-0.8,1.4-1.7,2.3-2.8,2.7
		c-1.1,0.4-2.4,0.6-4.1,0.6c-1.2,0-2.2-0.2-3-0.6c-0.8-0.4-1.5-1-2-1.7s-0.9-1.6-1.1-2.5c-0.2-0.9-0.4-1.8-0.4-2.7
		c0-1.3,0.1-2.4,0.4-3.3c0.3-0.9,0.7-1.7,1.2-2.3c0.6-0.7,1.2-1.2,2.1-1.6c0.9-0.4,1.9-0.8,3.1-1.2l3.9-1c1-0.3,1.8-0.6,2.1-1.1
		s0.6-1.2,0.6-2c0-1-0.2-1.8-0.7-2.4c-0.5-0.6-1.3-0.9-2.5-0.9c-1.1,0-1.9,0.3-2.4,1c-0.5,0.6-0.8,1.5-0.8,2.5v0.8H76V120.7z
		 M87.1,127.4c-0.5,0.2-1,0.4-1.5,0.5c-1.4,0.3-2.4,0.8-3,1.5c-0.6,0.7-0.9,1.6-0.9,2.8c0,1,0.2,1.9,0.6,2.7s1.1,1.1,2,1.1
		c0.5,0,0.9-0.1,1.4-0.2c0.5-0.2,1-0.4,1.4-0.7c0.4-0.3,0.8-0.8,1-1.3c0.3-0.5,0.4-1.2,0.4-1.9v-5.3
		C88.2,126.9,87.7,127.2,87.1,127.4z"/>
	<path fill="#FFFFFF" d="M106.7,113.1v3.2h0.1c0.7-1.3,1.7-2.3,2.9-2.9c1.2-0.6,2.5-0.9,4-0.9c2.2,0,3.9,0.6,5.1,1.8
		c1.2,1.2,1.8,3.1,1.8,5.9v20h-6.9v-18.5c0-1.4-0.2-2.4-0.7-2.9c-0.5-0.6-1.2-0.8-2.2-0.8c-2.4,0-3.6,1.5-3.6,4.5V140h-6.9v-26.9
		H106.7z"/>
	<path fill="#FFFFFF" d="M138.8,136.9c-0.7,1.3-1.7,2.3-2.9,2.9s-2.5,0.8-4,0.8c-2.2,0-3.9-0.6-5.1-1.7c-1.2-1.2-1.8-3.1-1.8-5.8
		v-20h6.9v18.6c0,1.4,0.2,2.4,0.7,2.9s1.2,0.8,2.2,0.8c2.4,0,3.7-1.5,3.7-4.5v-17.9h6.9V140h-6.6L138.8,136.9L138.8,136.9z"/>
	<path fill="#FFFFFF" d="M156,129.8c0,0.8,0.1,1.6,0.2,2.3c0.1,0.8,0.3,1.4,0.6,2c0.3,0.6,0.6,1,1,1.4c0.4,0.4,1,0.5,1.6,0.5
		c1.2,0,2-0.4,2.6-1.2c0.5-0.8,0.9-2.1,1.1-3.8h6.2c-0.1,3.1-1,5.5-2.5,7.1c-1.5,1.6-4,2.5-7.2,2.5c-2.5,0-4.5-0.4-5.9-1.2
		c-1.4-0.8-2.4-1.9-3.1-3.3c-0.7-1.4-1.1-2.9-1.2-4.6c-0.1-1.7-0.2-3.4-0.2-5.1c0-1.8,0.1-3.5,0.4-5.2c0.2-1.7,0.8-3.1,1.5-4.4
		c0.8-1.3,1.8-2.3,3.2-3.1c1.4-0.8,3.3-1.1,5.6-1.1c2,0,3.6,0.3,4.9,1s2.3,1.6,3,2.8c0.7,1.2,1.2,2.6,1.5,4.3
		c0.3,1.7,0.4,3.6,0.4,5.6v1.5H156V129.8z M162.9,120.8c-0.1-0.8-0.3-1.5-0.5-2c-0.2-0.6-0.6-1-1.1-1.2c-0.4-0.3-1-0.4-1.7-0.4
		s-1.3,0.2-1.7,0.5c-0.5,0.3-0.8,0.7-1.1,1.2c-0.3,0.5-0.5,1.1-0.6,1.7c-0.1,0.6-0.2,1.3-0.2,1.9v1h7
		C163.1,122.5,163,121.6,162.9,120.8z"/>
	<path fill="#FFFFFF" d="M179.9,113.1v3.6h0.1c0.7-1.3,1.5-2.3,2.5-3.1s2.2-1.2,3.7-1.2c0.2,0,0.4,0,0.6,0c0.2,0,0.4,0,0.6,0.1v6.6
		c-0.4,0-0.7-0.1-1.1-0.1s-0.7,0-1.1,0c-0.6,0-1.2,0.1-1.8,0.2c-0.6,0.2-1.2,0.4-1.7,0.8c-0.5,0.4-0.9,0.9-1.2,1.5
		c-0.3,0.6-0.5,1.4-0.5,2.3V140h-6.9v-26.9H179.9z"/>
	<path fill="#FFFFFF" d="M54.8,164.6h25v2.5h-25V164.6z"/>
	<path fill="#FFFFFF" d="M79.8,164.6h25v2.5h-25V164.6z"/>
	<path fill="#FFFFFF" d="M104.8,164.6h25v2.5h-25V164.6z"/>
	<path fill="#FFFFFF" d="M129.8,164.6h25v2.5h-25V164.6z"/>
	<path fill="#FFFFFF" d="M154.8,164.6h25v2.5h-25V164.6z"/>
</g>
<g>
</g>
<g>
</g>
<g>
</g>
<g>
</g>
<g>
</g>
<g>
</g>
<g>
</g>
<g>
</g>
<g>
</g>
<g>
</g>
<g>
</g>
<g>
</g>
<g>
</g>
<g>
</g>
<g>
</g>
</svg>
