<?xml version="1.0" encoding="utf-8"?>
<!-- Generator: Adobe Illustrator 18.1.1, SVG Export Plug-In . SVG Version: 6.00 Build 0)  -->
<svg version="1.1" id="Layer_1" xmlns="http://www.w3.org/2000/svg" xmlns:xlink="http://www.w3.org/1999/xlink" x="0px" y="0px"
	 viewBox="0 0 232 232" enable-background="new 0 0 232 232" xml:space="preserve">
<rect width="232" height="232"/>
<g>
	<path fill="#FFFFFF" d="M100.3,69h2.9l4.9,10h-3.2l-3.1-6.4L98.6,79h-3.2L100.3,69z"/>
	<path fill="#FFFFFF" d="M115.9,69h2.9l4.9,10h-3.2l-3.1-6.4l-3.1,6.4H111L115.9,69z"/>
	<path fill="#FFFFFF" d="M131.5,69h2.9l4.9,10H136l-3.1-6.4l-3.1,6.4h-3.2L131.5,69z"/>
	<path fill="#FFFFFF" d="M72.7,138.7c0,3.5-0.9,6.1-2.6,7.8c-1.7,1.7-4.6,2.6-8.6,2.6c-2.9,0-5.2-0.6-6.8-1.9
		c-1.6-1.2-2.4-3-2.4-5.3H59c0,0.9,0.3,1.6,1,2.1c0.3,0.2,0.7,0.4,1.1,0.5c0.4,0.1,0.8,0.2,1.2,0.2c1.4,0,2.4-0.5,3-1.4
		c0.6-0.9,0.9-2,0.9-3.3v-3.5H66c-0.7,1-1.6,1.8-2.6,2.4c-1,0.6-2.1,0.9-3.2,0.9c-2.7,0-4.8-1-6.2-3.1c-1.4-2.1-2.1-5.6-2.1-10.5
		c0-1.6,0.1-3.2,0.3-4.8c0.2-1.6,0.6-3.1,1.1-4.4c0.6-1.3,1.4-2.4,2.6-3.2c1.1-0.8,2.6-1.2,4.5-1.2c1,0,2,0.3,3,0.8
		c1,0.5,1.9,1.5,2.5,2.9h0.1v-3h6.6V138.7z M59,130.1c0.1,0.8,0.2,1.6,0.5,2.2c0.2,0.6,0.6,1.2,1.1,1.5c0.4,0.4,1,0.6,1.8,0.6
		c0.7,0,1.3-0.2,1.8-0.6c0.5-0.4,0.9-0.9,1.2-1.6c0.3-0.7,0.5-1.5,0.6-2.4c0.1-1,0.2-2,0.2-3.1c0-3.3-0.3-5.6-0.8-7
		c-0.5-1.4-1.5-2-2.8-2c-0.8,0-1.4,0.2-1.9,0.5c-0.5,0.3-0.8,0.9-1.1,1.6c-0.3,0.8-0.4,1.8-0.5,3c-0.1,1.2-0.1,2.8-0.1,4.6
		C58.9,128.3,59,129.2,59,130.1z"/>
	<path fill="#FFFFFF" d="M84.2,113.1v3.6h0.1c0.7-1.3,1.5-2.3,2.5-3.1s2.2-1.2,3.7-1.2c0.2,0,0.4,0,0.6,0c0.2,0,0.4,0,0.6,0.1v6.6
		c-0.4,0-0.7-0.1-1.1-0.1s-0.7,0-1.1,0c-0.6,0-1.2,0.1-1.8,0.2c-0.6,0.2-1.1,0.4-1.6,0.8c-0.5,0.4-0.9,0.9-1.2,1.5
		c-0.3,0.6-0.4,1.4-0.4,2.3V140h-6.9v-26.9H84.2z"/>
	<path fill="#FFFFFF" d="M94.2,120.7c0-1.6,0.2-2.9,0.8-3.9c0.5-1.1,1.2-1.9,2-2.6c0.9-0.6,1.9-1.1,3-1.4s2.4-0.4,3.7-0.4
		c2.1,0,3.7,0.2,5,0.6c1.3,0.4,2.2,1,2.9,1.7c0.7,0.7,1.2,1.6,1.4,2.6c0.2,1,0.4,2.1,0.4,3.3v14.1c0,1.3,0.1,2.2,0.2,3
		c0.1,0.7,0.3,1.5,0.7,2.2h-6.6c-0.2-0.4-0.4-0.9-0.5-1.4c-0.1-0.5-0.2-1-0.3-1.4h-0.1c-0.8,1.4-1.7,2.3-2.8,2.7
		c-1.1,0.4-2.4,0.6-4.1,0.6c-1.2,0-2.2-0.2-3-0.6c-0.8-0.4-1.5-1-2-1.7s-0.9-1.6-1.1-2.5c-0.2-0.9-0.4-1.8-0.4-2.7
		c0-1.3,0.1-2.4,0.4-3.3c0.3-0.9,0.7-1.7,1.2-2.3c0.6-0.7,1.2-1.2,2.1-1.6c0.9-0.4,1.9-0.8,3.1-1.2l3.9-1c1-0.3,1.8-0.6,2.1-1.1
		s0.6-1.2,0.6-2c0-1-0.2-1.8-0.7-2.4c-0.5-0.6-1.3-0.9-2.5-0.9c-1.1,0-1.9,0.3-2.4,1c-0.5,0.6-0.8,1.5-0.8,2.5v0.8h-6.2V120.7z
		 M105.3,127.4c-0.5,0.2-1,0.4-1.5,0.5c-1.4,0.3-2.4,0.8-3,1.5c-0.6,0.7-0.9,1.6-0.9,2.8c0,1,0.2,1.9,0.6,2.7s1.1,1.1,2,1.1
		c0.5,0,0.9-0.1,1.4-0.2c0.5-0.2,1-0.4,1.4-0.7c0.4-0.3,0.8-0.8,1-1.3c0.3-0.5,0.4-1.2,0.4-1.9v-5.3
		C106.3,126.9,105.8,127.2,105.3,127.4z"/>
	<path fill="#FFFFFF" d="M116.3,117.8v-4.7h3.5v-3c0-1.2,0.2-2.2,0.5-3c0.3-0.8,0.8-1.5,1.4-2c0.6-0.5,1.4-0.9,2.3-1.1
		c0.9-0.2,1.9-0.3,3-0.3c1.2,0,2.5,0,3.7,0.1v4.9c-0.2,0-0.4,0-0.7,0h-0.7c-1,0-1.6,0.2-2,0.5c-0.4,0.3-0.6,0.9-0.6,1.6v2.3h4v4.7
		h-4V140h-6.9v-22.2H116.3z"/>
	<path fill="#FFFFFF" d="M131.1,117.8v-4.7h3.5v-3c0-1.2,0.2-2.2,0.5-3c0.3-0.8,0.8-1.5,1.4-2c0.6-0.5,1.4-0.9,2.3-1.1
		c0.9-0.2,1.9-0.3,3-0.3c1.2,0,2.5,0,3.7,0.1v4.9c-0.2,0-0.4,0-0.7,0h-0.6c-1,0-1.7,0.2-2.1,0.5c-0.4,0.3-0.6,0.9-0.6,1.6v2.3h4v4.7
		h-4V140h-6.9v-22.2H131.1z"/>
	<path fill="#FFFFFF" d="M155,103.9v5.9h-6.9v-5.9H155z M155,113.1V140h-6.9v-26.9H155z"/>
	<path fill="#FFFFFF" d="M168.3,105.4v7.7h4v4.7h-4v14.5c0,1.1,0.2,1.8,0.5,2.3c0.3,0.5,1,0.7,2,0.7c0.3,0,0.5,0,0.8,0
		c0.3,0,0.5,0,0.8-0.1v4.8c-0.8,0-1.5,0-2.2,0.1s-1.5,0.1-2.3,0.1c-1.3,0-2.4-0.1-3.3-0.3c-0.8-0.2-1.5-0.5-2-1.1
		c-0.4-0.6-0.8-1.3-0.9-2.2c-0.2-0.9-0.2-2-0.2-3.4v-15.4h-3.5v-4.7h3.5v-7.7H168.3z"/>
	<path fill="#FFFFFF" d="M181.8,103.9v5.9h-6.9v-5.9H181.8z M181.8,113.1V140h-6.9v-26.9H181.8z"/>
	<path fill="#FFFFFF" d="M54.8,164.6h25v2.5h-25V164.6z"/>
	<path fill="#FFFFFF" d="M79.8,164.6h25v2.5h-25V164.6z"/>
	<path fill="#FFFFFF" d="M104.8,164.6h25v2.5h-25V164.6z"/>
	<path fill="#FFFFFF" d="M129.8,164.6h25v2.5h-25V164.6z"/>
	<path fill="#FFFFFF" d="M154.8,164.6h25v2.5h-25V164.6z"/>
</g>
<g>
</g>
<g>
</g>
<g>
</g>
<g>
</g>
<g>
</g>
<g>
</g>
<g>
</g>
<g>
</g>
<g>
</g>
<g>
</g>
<g>
</g>
<g>
</g>
<g>
</g>
<g>
</g>
<g>
</g>
</svg>
