<?xml version="1.0" encoding="utf-8"?>
<!-- Generator: Adobe Illustrator 18.1.1, SVG Export Plug-In . SVG Version: 6.00 Build 0)  -->
<svg version="1.1" id="Layer_1" xmlns="http://www.w3.org/2000/svg" xmlns:xlink="http://www.w3.org/1999/xlink" x="0px" y="0px"
	 viewBox="0 0 232 232" enable-background="new 0 0 232 232" xml:space="preserve">
<rect width="232" height="232"/>
<g>
	<path fill="#FFFFFF" d="M100.3,69h2.9l4.9,10h-3.2l-3.1-6.4L98.6,79h-3.2L100.3,69z"/>
	<path fill="#FFFFFF" d="M115.9,69h2.9l4.9,10h-3.2l-3.1-6.4l-3.1,6.4H111L115.9,69z"/>
	<path fill="#FFFFFF" d="M131.5,69h2.9l4.9,10H136l-3.1-6.4l-3.1,6.4h-3.2L131.5,69z"/>
	<path fill="#FFFFFF" d="M8.5,104.3v11.5h0.1c1.3-2.3,3.5-3.4,6.6-3.4c2.2,0,3.9,0.6,5.1,1.8c1.2,1.2,1.8,3.1,1.8,5.9v20h-6.9v-18.5
		c0-1.4-0.2-2.4-0.7-2.9c-0.5-0.6-1.2-0.8-2.2-0.8c-2.4,0-3.6,1.5-3.6,4.5V140H1.6v-35.7H8.5z"/>
	<path fill="#FFFFFF" d="M32.5,129.8c0,0.8,0.1,1.6,0.2,2.3c0.1,0.8,0.3,1.4,0.6,2c0.3,0.6,0.6,1,1,1.4c0.4,0.4,1,0.5,1.6,0.5
		c1.2,0,2-0.4,2.5-1.2c0.5-0.8,0.9-2.1,1.1-3.8h6.2c-0.1,3.1-1,5.5-2.5,7.1c-1.5,1.6-4,2.5-7.2,2.5c-2.5,0-4.5-0.4-5.9-1.2
		s-2.4-1.9-3.1-3.3c-0.7-1.4-1.1-2.9-1.2-4.6c-0.1-1.7-0.2-3.4-0.2-5.1c0-1.8,0.1-3.5,0.4-5.2c0.2-1.7,0.8-3.1,1.5-4.4
		c0.8-1.3,1.8-2.3,3.2-3.1c1.4-0.8,3.3-1.1,5.6-1.1c2,0,3.6,0.3,4.9,1s2.3,1.6,3,2.8c0.7,1.2,1.2,2.6,1.5,4.3
		c0.3,1.7,0.4,3.6,0.4,5.6v1.5H32.5V129.8z M39.3,120.8c-0.1-0.8-0.3-1.5-0.5-2c-0.2-0.6-0.6-1-1-1.2c-0.5-0.3-1-0.4-1.7-0.4
		s-1.3,0.2-1.7,0.5c-0.4,0.3-0.8,0.7-1.1,1.2c-0.3,0.5-0.5,1.1-0.6,1.7c-0.1,0.6-0.2,1.3-0.2,1.9v1h7
		C39.5,122.5,39.4,121.6,39.3,120.8z"/>
	<path fill="#FFFFFF" d="M49.7,120.7c0-1.6,0.2-2.9,0.8-3.9c0.5-1.1,1.2-1.9,2-2.6c0.9-0.6,1.9-1.1,3-1.4s2.4-0.4,3.7-0.4
		c2.1,0,3.7,0.2,5,0.6c1.3,0.4,2.2,1,2.9,1.7c0.7,0.7,1.2,1.6,1.4,2.6c0.2,1,0.4,2.1,0.4,3.3v14.1c0,1.3,0.1,2.2,0.2,3
		c0.1,0.7,0.3,1.5,0.7,2.2h-6.6c-0.2-0.4-0.4-0.9-0.5-1.4c-0.1-0.5-0.2-1-0.3-1.4h-0.1c-0.8,1.4-1.7,2.3-2.8,2.7
		c-1.1,0.4-2.4,0.6-4.1,0.6c-1.2,0-2.2-0.2-3-0.6c-0.8-0.4-1.5-1-2-1.7s-0.9-1.6-1.1-2.5c-0.2-0.9-0.4-1.8-0.4-2.7
		c0-1.3,0.1-2.4,0.4-3.3c0.3-0.9,0.7-1.7,1.2-2.3c0.6-0.7,1.2-1.2,2.1-1.6c0.9-0.4,1.9-0.8,3.1-1.2l3.9-1c1-0.3,1.8-0.6,2.1-1.1
		s0.6-1.2,0.6-2c0-1-0.2-1.8-0.7-2.4c-0.5-0.6-1.3-0.9-2.5-0.9c-1.1,0-1.9,0.3-2.4,1c-0.5,0.6-0.8,1.5-0.8,2.5v0.8h-6.2V120.7z
		 M60.8,127.4c-0.5,0.2-1,0.4-1.5,0.5c-1.4,0.3-2.4,0.8-3,1.5c-0.6,0.7-0.9,1.6-0.9,2.8c0,1,0.2,1.9,0.6,2.7s1.1,1.1,2,1.1
		c0.5,0,0.9-0.1,1.4-0.2c0.5-0.2,1-0.4,1.4-0.7c0.4-0.3,0.8-0.8,1-1.3c0.3-0.5,0.4-1.2,0.4-1.9v-5.3
		C61.8,126.9,61.3,127.2,60.8,127.4z"/>
	<path fill="#FFFFFF" d="M87.5,137.2c-0.8,1.3-1.6,2.1-2.6,2.6c-0.9,0.5-2.1,0.8-3.5,0.8c-2.8,0-4.9-1.1-6.2-3.2
		c-1.3-2.2-2-5.8-2-10.8s0.7-8.6,2-10.8c1.3-2.2,3.4-3.3,6.2-3.3c1.3,0,2.4,0.3,3.3,0.8c0.9,0.5,1.7,1.3,2.5,2.4h0.1v-11.3h6.9V140
		h-6.6v-2.8H87.5z M80.7,133.2c0.4,1.5,1.4,2.2,2.9,2.2c1.5,0,2.5-0.7,3-2.2c0.5-1.5,0.7-3.7,0.7-6.6c0-2.9-0.2-5.1-0.7-6.6
		c-0.5-1.5-1.4-2.2-3-2.2c-1.5,0-2.5,0.7-2.9,2.2c-0.5,1.5-0.7,3.7-0.7,6.6C80,129.5,80.3,131.7,80.7,133.2z"/>
	<path fill="#FFFFFF" d="M105.7,104.3v11.3h0.1c0.7-1.1,1.6-1.9,2.5-2.4c0.9-0.5,2-0.8,3.3-0.8c2.8,0,4.9,1.1,6.2,3.3
		c1.3,2.2,2,5.8,2,10.8s-0.7,8.6-2,10.8c-1.3,2.2-3.4,3.2-6.2,3.2c-1.4,0-2.6-0.2-3.5-0.8c-1-0.5-1.8-1.4-2.6-2.6h-0.1v2.8h-6.6
		v-35.7H105.7z M106.4,133.2c0.5,1.5,1.4,2.2,3,2.2c1.5,0,2.5-0.7,2.9-2.2c0.5-1.5,0.7-3.7,0.7-6.6c0-2.9-0.2-5.1-0.7-6.6
		c-0.4-1.5-1.4-2.2-2.9-2.2c-1.5,0-2.5,0.7-3,2.2c-0.5,1.5-0.7,3.7-0.7,6.6C105.7,129.5,105.9,131.7,106.4,133.2z"/>
	<path fill="#FFFFFF" d="M123.7,120.7c0-1.6,0.2-2.9,0.8-3.9c0.5-1.1,1.2-1.9,2-2.6c0.9-0.6,1.9-1.1,3-1.4c1.2-0.3,2.4-0.4,3.7-0.4
		c2.1,0,3.7,0.2,5,0.6c1.3,0.4,2.2,1,2.9,1.7c0.7,0.7,1.2,1.6,1.4,2.6c0.2,1,0.4,2.1,0.4,3.3v14.1c0,1.3,0.1,2.2,0.2,3
		c0.1,0.7,0.3,1.5,0.7,2.2h-6.6c-0.2-0.4-0.4-0.9-0.5-1.4c-0.1-0.5-0.2-1-0.3-1.4h-0.1c-0.8,1.4-1.7,2.3-2.8,2.7
		c-1,0.4-2.4,0.6-4.1,0.6c-1.2,0-2.2-0.2-3-0.6c-0.8-0.4-1.5-1-2-1.7s-0.9-1.6-1.1-2.5c-0.2-0.9-0.4-1.8-0.4-2.7
		c0-1.3,0.1-2.4,0.4-3.3c0.3-0.9,0.7-1.7,1.2-2.3c0.6-0.7,1.2-1.2,2.1-1.6c0.8-0.4,1.9-0.8,3.1-1.2l3.9-1c1-0.3,1.8-0.6,2.2-1.1
		c0.4-0.5,0.6-1.2,0.6-2c0-1-0.2-1.8-0.7-2.4c-0.5-0.6-1.3-0.9-2.5-0.9c-1.1,0-1.9,0.3-2.4,1c-0.5,0.6-0.8,1.5-0.8,2.5v0.8h-6.2
		V120.7z M134.8,127.4c-0.5,0.2-1,0.4-1.5,0.5c-1.4,0.3-2.4,0.8-3,1.5c-0.6,0.7-0.9,1.6-0.9,2.8c0,1,0.2,1.9,0.6,2.7
		c0.4,0.7,1.1,1.1,2,1.1c0.5,0,1-0.1,1.5-0.2c0.5-0.2,1-0.4,1.4-0.7c0.4-0.3,0.8-0.8,1-1.3c0.3-0.5,0.4-1.2,0.4-1.9v-5.3
		C135.9,126.9,135.4,127.2,134.8,127.4z"/>
	<path fill="#FFFFFF" d="M154.4,113.1v3.2h0.1c0.7-1.3,1.7-2.3,2.8-2.9c1.2-0.6,2.5-0.9,4-0.9c2.2,0,3.9,0.6,5.1,1.8
		c1.2,1.2,1.8,3.1,1.8,5.9v20h-6.9v-18.5c0-1.4-0.2-2.4-0.7-2.9c-0.5-0.6-1.2-0.8-2.2-0.8c-2.4,0-3.6,1.5-3.6,4.5V140h-6.9v-26.9
		H154.4z"/>
	<path fill="#FFFFFF" d="M193,138.7c0,3.5-0.9,6.1-2.6,7.8c-1.7,1.7-4.6,2.6-8.6,2.6c-2.9,0-5.2-0.6-6.8-1.9s-2.4-3-2.4-5.3h6.6
		c0,0.9,0.3,1.6,1,2.1c0.3,0.2,0.7,0.4,1.1,0.5c0.4,0.1,0.8,0.2,1.2,0.2c1.4,0,2.4-0.5,3-1.4c0.6-0.9,0.8-2,0.8-3.3v-3.5h-0.1
		c-0.7,1-1.6,1.8-2.6,2.4c-1,0.6-2.1,0.9-3.2,0.9c-2.7,0-4.8-1-6.2-3.1c-1.4-2.1-2.1-5.6-2.1-10.5c0-1.6,0.1-3.2,0.3-4.8
		c0.2-1.6,0.6-3.1,1.1-4.4c0.6-1.3,1.4-2.4,2.5-3.2s2.6-1.2,4.5-1.2c1,0,2,0.3,3,0.8c1,0.5,1.9,1.5,2.5,2.9h0.1v-3h6.6V138.7z
		 M179.3,130.1c0.1,0.8,0.2,1.6,0.5,2.2c0.2,0.6,0.6,1.2,1,1.5c0.5,0.4,1,0.6,1.8,0.6s1.3-0.2,1.8-0.6c0.5-0.4,0.9-0.9,1.2-1.6
		c0.3-0.7,0.5-1.5,0.6-2.4c0.1-1,0.2-2,0.2-3.1c0-3.3-0.3-5.6-0.8-7c-0.5-1.4-1.5-2-2.8-2c-0.8,0-1.4,0.2-1.8,0.5
		c-0.5,0.3-0.8,0.9-1.1,1.6s-0.4,1.8-0.5,3c-0.1,1.2-0.1,2.8-0.1,4.6C179.2,128.3,179.2,129.2,179.3,130.1z"/>
	<path fill="#FFFFFF" d="M203.7,129.8c0,0.8,0.1,1.6,0.2,2.3c0.1,0.8,0.3,1.4,0.6,2c0.3,0.6,0.6,1,1,1.4c0.4,0.4,1,0.5,1.6,0.5
		c1.2,0,2-0.4,2.6-1.2c0.5-0.8,0.9-2.1,1.1-3.8h6.2c-0.1,3.1-1,5.5-2.5,7.1c-1.5,1.6-4,2.5-7.2,2.5c-2.5,0-4.5-0.4-5.9-1.2
		c-1.4-0.8-2.4-1.9-3.1-3.3c-0.7-1.4-1.1-2.9-1.2-4.6c-0.2-1.7-0.2-3.4-0.2-5.1c0-1.8,0.1-3.5,0.4-5.2c0.2-1.7,0.8-3.1,1.5-4.4
		c0.8-1.3,1.8-2.3,3.2-3.1c1.4-0.8,3.3-1.1,5.6-1.1c2,0,3.6,0.3,4.9,1s2.3,1.6,3,2.8c0.7,1.2,1.2,2.6,1.5,4.3
		c0.3,1.7,0.4,3.6,0.4,5.6v1.5h-13.6V129.8z M210.6,120.8c-0.1-0.8-0.3-1.5-0.5-2c-0.2-0.6-0.6-1-1.1-1.2c-0.4-0.3-1-0.4-1.7-0.4
		s-1.3,0.2-1.7,0.5c-0.5,0.3-0.8,0.7-1.1,1.2c-0.3,0.5-0.5,1.1-0.6,1.7c-0.1,0.6-0.2,1.3-0.2,1.9v1h7
		C210.8,122.5,210.7,121.6,210.6,120.8z"/>
	<path fill="#FFFFFF" d="M227.6,113.1v3.6h0.1c0.7-1.3,1.5-2.3,2.5-3.1s2.2-1.2,3.7-1.2c0.2,0,0.4,0,0.6,0c0.2,0,0.4,0,0.6,0.1v6.6
		c-0.4,0-0.7-0.1-1.1-0.1s-0.7,0-1.1,0c-0.6,0-1.2,0.1-1.8,0.2c-0.6,0.2-1.2,0.4-1.7,0.8c-0.5,0.4-0.9,0.9-1.2,1.5
		c-0.3,0.6-0.5,1.4-0.5,2.3V140H221v-26.9H227.6z"/>
	<path fill="#FFFFFF" d="M54.8,164.6h25v2.5h-25V164.6z"/>
	<path fill="#FFFFFF" d="M79.8,164.6h25v2.5h-25V164.6z"/>
	<path fill="#FFFFFF" d="M104.8,164.6h25v2.5h-25V164.6z"/>
	<path fill="#FFFFFF" d="M129.8,164.6h25v2.5h-25V164.6z"/>
	<path fill="#FFFFFF" d="M154.8,164.6h25v2.5h-25V164.6z"/>
</g>
<g>
</g>
<g>
</g>
<g>
</g>
<g>
</g>
<g>
</g>
<g>
</g>
<g>
</g>
<g>
</g>
<g>
</g>
<g>
</g>
<g>
</g>
<g>
</g>
<g>
</g>
<g>
</g>
<g>
</g>
</svg>
