<?xml version="1.0" encoding="utf-8"?>
<!-- Generator: Adobe Illustrator 18.1.1, SVG Export Plug-In . SVG Version: 6.00 Build 0)  -->
<svg version="1.1" id="Layer_1" xmlns="http://www.w3.org/2000/svg" xmlns:xlink="http://www.w3.org/1999/xlink" x="0px" y="0px"
	 viewBox="0 0 232 232" enable-background="new 0 0 232 232" xml:space="preserve">
<rect width="232" height="232"/>
<g>
	<path fill="#FFFFFF" d="M100.3,69h2.9l4.9,10h-3.2l-3.1-6.4L98.6,79h-3.2L100.3,69z"/>
	<path fill="#FFFFFF" d="M115.9,69h2.9l4.9,10h-3.2l-3.1-6.4l-3.1,6.4H111L115.9,69z"/>
	<path fill="#FFFFFF" d="M131.5,69h2.9l4.9,10H136l-3.1-6.4l-3.1,6.4h-3.2L131.5,69z"/>
	<path fill="#FFFFFF" d="M52.5,104.3v11.5h0.1c1.3-2.3,3.5-3.4,6.6-3.4c2.2,0,3.9,0.6,5.1,1.8c1.2,1.2,1.8,3.1,1.8,5.9v20h-6.9
		v-18.5c0-1.4-0.2-2.4-0.7-2.9c-0.5-0.6-1.2-0.8-2.2-0.8c-2.4,0-3.6,1.5-3.6,4.5V140h-6.9v-35.7H52.5z"/>
	<path fill="#FFFFFF" d="M70.3,120.5c0.4-1.8,1-3.2,1.8-4.4c0.8-1.2,1.9-2.1,3.3-2.7c1.4-0.6,3-0.9,5-0.9c2.1,0,3.8,0.2,5.1,0.8
		c1.4,0.6,2.5,1.5,3.2,2.7c0.8,1.2,1.4,2.7,1.7,4.4c0.3,1.8,0.5,3.8,0.5,6.2c0,2.3-0.2,4.3-0.6,6.1c-0.4,1.8-1,3.2-1.8,4.4
		c-0.8,1.2-1.9,2.1-3.3,2.6s-3,0.8-5,0.8c-2.1,0-3.8-0.2-5.1-0.8c-1.4-0.6-2.5-1.4-3.2-2.6c-0.8-1.2-1.4-2.7-1.7-4.5
		c-0.3-1.8-0.5-3.8-0.5-6.2C69.7,124.3,69.9,122.2,70.3,120.5z M76.7,130.4c0.1,1.2,0.2,2.2,0.5,3c0.2,0.8,0.6,1.5,1.1,2
		c0.5,0.5,1.2,0.7,2,0.7c1.4,0,2.4-0.7,2.9-2.2c0.5-1.5,0.8-3.9,0.8-7.2c0-3.4-0.3-5.8-0.8-7.2c-0.5-1.5-1.5-2.2-2.9-2.2
		c-0.8,0-1.5,0.2-2,0.7c-0.5,0.5-0.9,1.1-1.1,2c-0.2,0.8-0.4,1.8-0.5,3c-0.1,1.2-0.1,2.4-0.1,3.8C76.6,127.9,76.6,129.2,76.7,130.4z
		"/>
	<path fill="#FFFFFF" d="M108.3,136.9c-0.7,1.3-1.7,2.3-2.9,2.9c-1.2,0.6-2.5,0.8-4,0.8c-2.2,0-3.9-0.6-5.1-1.7
		c-1.2-1.2-1.8-3.1-1.8-5.8v-20h6.9v18.6c0,1.4,0.2,2.4,0.7,2.9c0.5,0.5,1.2,0.8,2.2,0.8c2.4,0,3.6-1.5,3.6-4.5v-17.9h6.9V140h-6.6
		v-3.2H108.3z"/>
	<path fill="#FFFFFF" d="M133.3,137.2c-0.8,1.3-1.6,2.1-2.6,2.6s-2.1,0.8-3.5,0.8c-2.8,0-4.9-1.1-6.2-3.2c-1.3-2.2-2-5.8-2-10.8
		s0.7-8.6,2-10.8c1.3-2.2,3.4-3.3,6.2-3.3c1.3,0,2.4,0.3,3.3,0.8s1.7,1.3,2.5,2.4h0.1v-11.3h6.9V140h-6.6L133.3,137.2L133.3,137.2z
		 M126.5,133.2c0.5,1.5,1.4,2.2,2.9,2.2c1.5,0,2.5-0.7,3-2.2c0.5-1.5,0.7-3.7,0.7-6.6c0-2.9-0.2-5.1-0.7-6.6c-0.5-1.5-1.4-2.2-3-2.2
		c-1.5,0-2.5,0.7-2.9,2.2c-0.5,1.5-0.7,3.7-0.7,6.6C125.9,129.5,126.1,131.7,126.5,133.2z"/>
	<path fill="#FFFFFF" d="M151.8,103.9v5.9h-6.9v-5.9H151.8z M151.8,113.1V140h-6.9v-26.9H151.8z"/>
	<path fill="#FFFFFF" d="M163.2,113.1v3.2h0.1c0.7-1.3,1.7-2.3,2.8-2.9c1.2-0.6,2.5-0.9,4-0.9c2.2,0,3.9,0.6,5.1,1.8
		c1.2,1.2,1.8,3.1,1.8,5.9v20h-6.9v-18.5c0-1.4-0.2-2.4-0.7-2.9c-0.5-0.6-1.2-0.8-2.2-0.8c-2.4,0-3.6,1.5-3.6,4.5V140h-6.9v-26.9
		H163.2z"/>
	<path fill="#FFFFFF" d="M188.8,103.9v5.9h-6.9v-5.9H188.8z M188.8,113.1V140h-6.9v-26.9H188.8z"/>
	<path fill="#FFFFFF" d="M54.8,164.6h25v2.5h-25V164.6z"/>
	<path fill="#FFFFFF" d="M79.8,164.6h25v2.5h-25V164.6z"/>
	<path fill="#FFFFFF" d="M104.8,164.6h25v2.5h-25V164.6z"/>
	<path fill="#FFFFFF" d="M129.8,164.6h25v2.5h-25V164.6z"/>
	<path fill="#FFFFFF" d="M154.8,164.6h25v2.5h-25V164.6z"/>
</g>
<g>
</g>
<g>
</g>
<g>
</g>
<g>
</g>
<g>
</g>
<g>
</g>
<g>
</g>
<g>
</g>
<g>
</g>
<g>
</g>
<g>
</g>
<g>
</g>
<g>
</g>
<g>
</g>
<g>
</g>
</svg>
