<?xml version="1.0" encoding="utf-8"?>
<!-- Generator: Adobe Illustrator 18.1.1, SVG Export Plug-In . SVG Version: 6.00 Build 0)  -->
<svg version="1.1" id="Layer_1" xmlns="http://www.w3.org/2000/svg" xmlns:xlink="http://www.w3.org/1999/xlink" x="0px" y="0px"
	 viewBox="0 0 232 232" enable-background="new 0 0 232 232" xml:space="preserve">
<rect width="232" height="232"/>
<g>
	<path fill="#FFFFFF" d="M100.3,69h2.9l4.9,10h-3.2l-3.1-6.4L98.6,79h-3.2L100.3,69z"/>
	<path fill="#FFFFFF" d="M115.9,69h2.9l4.9,10h-3.2l-3.1-6.4l-3.1,6.4H111L115.9,69z"/>
	<path fill="#FFFFFF" d="M131.5,69h2.9l4.9,10H136l-3.1-6.4l-3.1,6.4h-3.2L131.5,69z"/>
	<path fill="#FFFFFF" d="M43.9,120.5c0.4-1.8,1-3.2,1.8-4.4c0.8-1.2,1.9-2.1,3.3-2.7c1.4-0.6,3-0.9,5-0.9c2.1,0,3.8,0.2,5.1,0.8
		c1.4,0.6,2.5,1.5,3.2,2.7c0.8,1.2,1.4,2.7,1.7,4.4c0.3,1.8,0.5,3.8,0.5,6.2c0,2.3-0.2,4.3-0.6,6.1c-0.4,1.8-1,3.2-1.8,4.4
		c-0.8,1.2-1.9,2.1-3.3,2.6s-3,0.8-5,0.8c-2.1,0-3.8-0.2-5.1-0.8c-1.4-0.6-2.5-1.4-3.2-2.6c-0.8-1.2-1.4-2.7-1.7-4.5
		c-0.3-1.8-0.5-3.8-0.5-6.2C43.3,124.3,43.5,122.2,43.9,120.5z M50.3,130.4c0.1,1.2,0.2,2.2,0.5,3c0.2,0.8,0.6,1.5,1.1,2
		c0.5,0.5,1.2,0.7,2,0.7c1.4,0,2.4-0.7,2.9-2.2c0.5-1.5,0.8-3.9,0.8-7.2c0-3.4-0.3-5.8-0.8-7.2c-0.5-1.5-1.5-2.2-2.9-2.2
		c-0.8,0-1.5,0.2-2,0.7c-0.5,0.5-0.9,1.1-1.1,2c-0.2,0.8-0.4,1.8-0.5,3c-0.1,1.2-0.1,2.4-0.1,3.8C50.2,127.9,50.3,129.2,50.3,130.4z
		"/>
	<path fill="#FFFFFF" d="M81.1,120.9c-0.1-0.6-0.2-1.2-0.5-1.7c-0.2-0.5-0.5-0.9-0.9-1.2c-0.4-0.3-0.9-0.5-1.6-0.5
		c-0.8,0-1.5,0.2-2,0.6c-0.5,0.4-0.9,1-1.2,1.7c-0.3,0.8-0.4,1.7-0.5,2.9c-0.1,1.1-0.1,2.5-0.1,4.1c0,1.7,0,3.1,0.1,4.3
		c0.1,1.2,0.3,2.2,0.5,2.9c0.3,0.8,0.6,1.3,1.1,1.7c0.5,0.4,1.1,0.5,1.9,0.5c1.2,0,2-0.5,2.6-1.5c0.5-1,0.8-2.6,0.8-4.8h6.6
		c0,3.5-0.8,6.2-2.4,8.1c-1.6,1.8-4.2,2.8-7.9,2.8c-1.7,0-3.2-0.2-4.5-0.6c-1.3-0.4-2.4-1.2-3.2-2.2c-0.9-1.1-1.5-2.5-1.9-4.3
		c-0.4-1.8-0.7-4.1-0.7-6.8c0-2.8,0.3-5.1,0.8-6.9c0.5-1.8,1.3-3.3,2.2-4.4c1-1.1,2.1-1.8,3.4-2.3c1.3-0.4,2.8-0.6,4.4-0.6
		c3.2,0,5.6,0.9,7.2,2.8c1.6,1.9,2.4,4.4,2.4,7.6h-6.6C81.2,122.1,81.1,121.5,81.1,120.9z"/>
	<path fill="#FFFFFF" d="M99.8,105.4v7.7h4v4.7h-4v14.5c0,1.1,0.2,1.8,0.5,2.3c0.3,0.5,1,0.7,2,0.7c0.3,0,0.5,0,0.8,0
		c0.3,0,0.5,0,0.8-0.1v4.8c-0.8,0-1.5,0-2.2,0.1c-0.7,0-1.5,0.1-2.3,0.1c-1.3,0-2.4-0.1-3.3-0.3c-0.8-0.2-1.5-0.5-1.9-1.1
		c-0.5-0.6-0.8-1.3-0.9-2.2c-0.2-0.9-0.2-2-0.2-3.4v-15.4h-3.5v-4.7h3.5v-7.7H99.8z"/>
	<path fill="#FFFFFF" d="M105.8,120.5c0.4-1.8,1-3.2,1.8-4.4c0.8-1.2,1.9-2.1,3.3-2.7c1.4-0.6,3-0.9,5-0.9c2.1,0,3.8,0.2,5.2,0.8
		c1.4,0.6,2.5,1.5,3.2,2.7c0.8,1.2,1.4,2.7,1.7,4.4c0.3,1.8,0.5,3.8,0.5,6.2c0,2.3-0.2,4.3-0.6,6.1s-1,3.2-1.8,4.4
		c-0.8,1.2-1.9,2.1-3.3,2.6c-1.4,0.6-3,0.8-5,0.8c-2.1,0-3.8-0.2-5.1-0.8c-1.4-0.6-2.5-1.4-3.2-2.6c-0.8-1.2-1.4-2.7-1.7-4.5
		c-0.3-1.8-0.5-3.8-0.5-6.2C105.3,124.3,105.5,122.2,105.8,120.5z M112.3,130.4c0.1,1.2,0.2,2.2,0.5,3c0.2,0.8,0.6,1.5,1.1,2
		c0.5,0.5,1.2,0.7,2,0.7c1.4,0,2.4-0.7,2.9-2.2c0.5-1.5,0.8-3.9,0.8-7.2c0-3.4-0.3-5.8-0.8-7.2c-0.5-1.5-1.5-2.2-2.9-2.2
		c-0.8,0-1.5,0.2-2,0.7c-0.5,0.5-0.9,1.1-1.1,2c-0.2,0.8-0.4,1.8-0.5,3c-0.1,1.2-0.1,2.4-0.1,3.8
		C112.2,127.9,112.2,129.2,112.3,130.4z"/>
	<path fill="#FFFFFF" d="M137.1,104.3v11.3h0.1c0.7-1.1,1.6-1.9,2.5-2.4s2-0.8,3.3-0.8c2.8,0,4.9,1.1,6.2,3.3c1.3,2.2,2,5.8,2,10.8
		s-0.7,8.6-2,10.8c-1.3,2.2-3.4,3.2-6.2,3.2c-1.4,0-2.6-0.2-3.5-0.8c-1-0.5-1.8-1.4-2.6-2.6h-0.1v2.8h-6.6v-35.7H137.1z
		 M137.8,133.2c0.5,1.5,1.4,2.2,3,2.2c1.5,0,2.5-0.7,2.9-2.2c0.5-1.5,0.7-3.7,0.7-6.6c0-2.9-0.2-5.1-0.7-6.6
		c-0.4-1.5-1.4-2.2-2.9-2.2c-1.5,0-2.5,0.7-3,2.2c-0.5,1.5-0.7,3.7-0.7,6.6C137.1,129.5,137.3,131.7,137.8,133.2z"/>
	<path fill="#FFFFFF" d="M161.1,129.8c0,0.8,0.1,1.6,0.2,2.3c0.1,0.8,0.3,1.4,0.6,2c0.3,0.6,0.6,1,1,1.4c0.4,0.4,1,0.5,1.6,0.5
		c1.2,0,2-0.4,2.6-1.2c0.5-0.8,0.9-2.1,1.1-3.8h6.2c-0.1,3.1-1,5.5-2.5,7.1c-1.5,1.6-4,2.5-7.2,2.5c-2.5,0-4.5-0.4-5.9-1.2
		c-1.4-0.8-2.4-1.9-3.1-3.3c-0.7-1.4-1.1-2.9-1.2-4.6c-0.1-1.7-0.2-3.4-0.2-5.1c0-1.8,0.1-3.5,0.4-5.2c0.2-1.7,0.8-3.1,1.5-4.4
		c0.8-1.3,1.8-2.3,3.2-3.1c1.4-0.8,3.3-1.1,5.6-1.1c2,0,3.6,0.3,4.9,1s2.3,1.6,3,2.8c0.7,1.2,1.2,2.6,1.5,4.3
		c0.3,1.7,0.4,3.6,0.4,5.6v1.5h-13.6V129.8z M167.9,120.8c-0.1-0.8-0.3-1.5-0.5-2c-0.2-0.6-0.6-1-1.1-1.2c-0.4-0.3-1-0.4-1.7-0.4
		s-1.3,0.2-1.7,0.5c-0.5,0.3-0.8,0.7-1.1,1.2c-0.3,0.5-0.5,1.1-0.6,1.7c-0.1,0.6-0.2,1.3-0.2,1.9v1h7
		C168.1,122.5,168,121.6,167.9,120.8z"/>
	<path fill="#FFFFFF" d="M184.9,113.1v3.6h0.1c0.7-1.3,1.5-2.3,2.5-3.1s2.2-1.2,3.7-1.2c0.2,0,0.4,0,0.6,0c0.2,0,0.4,0,0.6,0.1v6.6
		c-0.4,0-0.7-0.1-1.1-0.1s-0.7,0-1.1,0c-0.6,0-1.2,0.1-1.8,0.2c-0.6,0.2-1.2,0.4-1.7,0.8c-0.5,0.4-0.9,0.9-1.2,1.5
		c-0.3,0.6-0.5,1.4-0.5,2.3V140h-6.9v-26.9H184.9z"/>
	<path fill="#FFFFFF" d="M54.8,164.6h25v2.5h-25V164.6z"/>
	<path fill="#FFFFFF" d="M79.8,164.6h25v2.5h-25V164.6z"/>
	<path fill="#FFFFFF" d="M104.8,164.6h25v2.5h-25V164.6z"/>
	<path fill="#FFFFFF" d="M129.8,164.6h25v2.5h-25V164.6z"/>
	<path fill="#FFFFFF" d="M154.8,164.6h25v2.5h-25V164.6z"/>
</g>
<g>
</g>
<g>
</g>
<g>
</g>
<g>
</g>
<g>
</g>
<g>
</g>
<g>
</g>
<g>
</g>
<g>
</g>
<g>
</g>
<g>
</g>
<g>
</g>
<g>
</g>
<g>
</g>
<g>
</g>
</svg>
