<?xml version="1.0" encoding="utf-8"?>
<!-- Generator: Adobe Illustrator 18.1.1, SVG Export Plug-In . SVG Version: 6.00 Build 0)  -->
<svg version="1.1" id="Layer_1" xmlns="http://www.w3.org/2000/svg" xmlns:xlink="http://www.w3.org/1999/xlink" x="0px" y="0px"
	 viewBox="0 0 232 232" enable-background="new 0 0 232 232" xml:space="preserve">
<rect width="232" height="232"/>
<g>
	<path fill="#FFFFFF" d="M100.3,69h2.9l4.9,10h-3.2l-3.1-6.4L98.6,79h-3.2L100.3,69z"/>
	<path fill="#FFFFFF" d="M115.9,69h2.9l4.9,10h-3.2l-3.1-6.4l-3.1,6.4H111L115.9,69z"/>
	<path fill="#FFFFFF" d="M131.5,69h2.9l4.9,10H136l-3.1-6.4l-3.1,6.4h-3.2L131.5,69z"/>
	<path fill="#FFFFFF" d="M72.9,132.1c0,1.2,0.3,2.1,0.9,2.8c0.6,0.7,1.5,1.1,2.7,1.1c1.1,0,1.9-0.3,2.5-0.8c0.6-0.5,1-1.3,1-2.4
		c0-0.9-0.2-1.5-0.8-2s-1.1-0.8-1.8-1.1l-4.9-1.8c-1.9-0.7-3.3-1.6-4.3-2.8c-1-1.2-1.4-2.8-1.4-4.7c0-1.1,0.2-2.1,0.5-3.1
		c0.4-1,1-1.8,1.8-2.6c0.8-0.7,1.8-1.3,3.1-1.8c1.2-0.4,2.8-0.6,4.5-0.6c3.1,0,5.5,0.7,7,2s2.2,3.2,2.2,5.6v1.1h-6.2
		c0-1.4-0.2-2.4-0.7-3.1c-0.5-0.7-1.2-1-2.4-1c-0.9,0-1.6,0.2-2.3,0.7c-0.6,0.5-1,1.2-1,2.2c0,0.7,0.2,1.3,0.6,1.8
		c0.4,0.5,1.2,1,2.4,1.4l4.1,1.4c2.2,0.7,3.7,1.7,4.6,2.9c0.9,1.2,1.3,2.8,1.3,4.8c0,1.4-0.2,2.7-0.8,3.7c-0.5,1.1-1.2,1.9-2.1,2.6
		c-0.9,0.7-1.9,1.2-3.1,1.5c-1.2,0.3-2.6,0.5-4,0.5c-1.9,0-3.5-0.2-4.8-0.5c-1.3-0.4-2.3-0.9-3.1-1.7c-0.8-0.7-1.3-1.6-1.6-2.7
		c-0.3-1-0.5-2.2-0.5-3.5v-1h6.2V132.1z"/>
	<path fill="#FFFFFF" d="M95.9,129.8c0,0.8,0.1,1.6,0.2,2.3c0.1,0.8,0.3,1.4,0.6,2c0.3,0.6,0.6,1,1,1.4c0.4,0.4,1,0.5,1.6,0.5
		c1.2,0,2-0.4,2.5-1.2c0.5-0.8,0.9-2.1,1.1-3.8h6.2c-0.1,3.1-1,5.5-2.5,7.1c-1.5,1.6-4,2.5-7.2,2.5c-2.5,0-4.5-0.4-5.9-1.2
		s-2.4-1.9-3.1-3.3c-0.7-1.4-1.1-2.9-1.2-4.6c-0.1-1.7-0.2-3.4-0.2-5.1c0-1.8,0.1-3.5,0.4-5.2c0.2-1.7,0.8-3.1,1.5-4.4
		c0.8-1.3,1.8-2.3,3.2-3.1c1.4-0.8,3.3-1.1,5.6-1.1c2,0,3.6,0.3,4.9,1s2.3,1.6,3,2.8c0.7,1.2,1.2,2.6,1.5,4.3
		c0.3,1.7,0.4,3.6,0.4,5.6v1.5H95.9V129.8z M102.8,120.8c-0.1-0.8-0.3-1.5-0.5-2c-0.2-0.6-0.6-1-1-1.2c-0.5-0.3-1-0.4-1.7-0.4
		s-1.3,0.2-1.7,0.5c-0.4,0.3-0.8,0.7-1.1,1.2c-0.3,0.5-0.5,1.1-0.6,1.7c-0.1,0.6-0.2,1.3-0.2,1.9v1h7
		C103,122.5,102.9,121.6,102.8,120.8z"/>
	<path fill="#FFFFFF" d="M120.3,103.9v5.9h-6.9v-5.9H120.3z M120.3,113.1V140h-6.9v-26.9H120.3z"/>
	<path fill="#FFFFFF" d="M130.2,132.1c0,1.2,0.3,2.1,0.9,2.8c0.6,0.7,1.5,1.1,2.7,1.1c1.1,0,1.9-0.3,2.5-0.8c0.6-0.5,1-1.3,1-2.4
		c0-0.9-0.2-1.5-0.8-2s-1.1-0.8-1.8-1.1L130,128c-1.9-0.7-3.3-1.6-4.3-2.8c-1-1.2-1.5-2.8-1.5-4.7c0-1.1,0.2-2.1,0.5-3.1
		c0.4-1,1-1.8,1.8-2.6c0.8-0.7,1.8-1.3,3.1-1.8c1.2-0.4,2.8-0.6,4.5-0.6c3.1,0,5.5,0.7,7,2s2.2,3.2,2.2,5.6v1.1h-6.2
		c0-1.4-0.2-2.4-0.7-3.1c-0.5-0.7-1.2-1-2.4-1c-0.9,0-1.6,0.2-2.3,0.7s-1,1.2-1,2.2c0,0.7,0.2,1.3,0.6,1.8c0.4,0.5,1.2,1,2.4,1.4
		l4.1,1.4c2.2,0.7,3.7,1.7,4.6,2.9c0.9,1.2,1.3,2.8,1.3,4.8c0,1.4-0.2,2.7-0.8,3.7c-0.5,1.1-1.2,1.9-2.1,2.6
		c-0.9,0.7-1.9,1.2-3.1,1.5c-1.2,0.3-2.6,0.5-4,0.5c-1.9,0-3.5-0.2-4.8-0.5s-2.3-0.9-3-1.7c-0.8-0.7-1.3-1.6-1.6-2.7
		s-0.5-2.2-0.5-3.5v-1h6.2V132.1z"/>
	<path fill="#FFFFFF" d="M147.3,124.3c1-1.6,2.5-2.6,4.5-3v-0.1c-1-0.2-1.8-0.6-2.4-1.1c-0.6-0.5-1.2-1.1-1.6-1.7
		c-0.4-0.6-0.7-1.3-0.9-2c-0.2-0.7-0.2-1.4-0.2-2c0-3.5,0.9-6,2.8-7.5c1.8-1.5,4.4-2.3,7.6-2.3c3.2,0,5.8,0.8,7.6,2.3
		c1.8,1.5,2.8,4,2.8,7.5c0,0.6-0.1,1.3-0.3,2c-0.2,0.7-0.5,1.4-0.9,2c-0.4,0.6-0.9,1.2-1.6,1.7c-0.6,0.5-1.4,0.9-2.4,1.1v0.1
		c2,0.4,3.5,1.4,4.5,3s1.5,3.5,1.5,5.8c0,1-0.1,2.2-0.4,3.4s-0.8,2.4-1.6,3.4c-0.8,1.1-1.9,2-3.4,2.7s-3.5,1-5.9,1
		c-2.5,0-4.4-0.3-5.9-1c-1.5-0.7-2.6-1.6-3.4-2.7c-0.8-1.1-1.3-2.2-1.6-3.4s-0.4-2.4-0.4-3.4C145.8,127.8,146.3,125.9,147.3,124.3z
		 M153.2,132.3c0.1,0.8,0.3,1.4,0.6,1.9c0.3,0.6,0.7,1,1.3,1.3c0.5,0.3,1.2,0.5,2,0.5s1.5-0.2,2-0.5s1-0.8,1.3-1.3
		c0.3-0.5,0.5-1.2,0.6-1.9c0.1-0.8,0.2-1.5,0.2-2.4c0-0.9-0.1-1.7-0.2-2.4c-0.1-0.7-0.3-1.4-0.6-1.9c-0.3-0.5-0.7-1-1.3-1.3
		s-1.2-0.5-2-0.5s-1.5,0.2-2,0.5c-0.5,0.3-1,0.8-1.3,1.3c-0.3,0.5-0.5,1.2-0.6,1.9c-0.1,0.7-0.2,1.5-0.2,2.4
		C153,130.7,153,131.5,153.2,132.3z M154.5,117.9c0.6,0.8,1.5,1.2,2.5,1.2c1.1,0,1.9-0.4,2.5-1.2c0.6-0.8,1-2.1,1-3.8
		c0-3.2-1.2-4.9-3.5-4.9s-3.5,1.6-3.5,4.9C153.6,115.9,153.9,117.1,154.5,117.9z"/>
	<path fill="#FFFFFF" d="M54.8,164.6h25v2.5h-25V164.6z"/>
	<path fill="#FFFFFF" d="M79.8,164.6h25v2.5h-25V164.6z"/>
	<path fill="#FFFFFF" d="M104.8,164.6h25v2.5h-25V164.6z"/>
	<path fill="#FFFFFF" d="M129.8,164.6h25v2.5h-25V164.6z"/>
	<path fill="#FFFFFF" d="M154.8,164.6h25v2.5h-25V164.6z"/>
</g>
<g>
</g>
<g>
</g>
<g>
</g>
<g>
</g>
<g>
</g>
<g>
</g>
<g>
</g>
<g>
</g>
<g>
</g>
<g>
</g>
<g>
</g>
<g>
</g>
<g>
</g>
<g>
</g>
<g>
</g>
</svg>
