<?xml version="1.0" encoding="utf-8"?>
<!-- Generator: Adobe Illustrator 18.1.1, SVG Export Plug-In . SVG Version: 6.00 Build 0)  -->
<svg version="1.1" id="Layer_1" xmlns="http://www.w3.org/2000/svg" xmlns:xlink="http://www.w3.org/1999/xlink" x="0px" y="0px"
	 viewBox="0 0 232 232" enable-background="new 0 0 232 232" xml:space="preserve">
<g>
	<g>
		<path d="M84.3,136c0.5,0,0.9-0.1,1.4-0.2c0.5-0.2,1-0.4,1.4-0.7c0.4-0.3,0.8-0.8,1-1.3c0.3-0.5,0.4-1.2,0.4-1.9v-5.3
			c-0.3,0.3-0.8,0.6-1.4,0.8c-0.5,0.2-1,0.4-1.5,0.5c-1.4,0.3-2.4,0.8-3,1.5c-0.6,0.7-0.9,1.6-0.9,2.8c0,1,0.2,1.9,0.6,2.7
			C82.7,135.7,83.4,136,84.3,136z M162.9,120.8c-0.1-0.8-0.3-1.5-0.5-2c-0.2-0.6-0.6-1-1.1-1.2c-0.4-0.3-1-0.4-1.7-0.4
			c-0.7,0-1.3,0.2-1.7,0.5c-0.5,0.3-0.8,0.7-1.1,1.2s-0.5,1.1-0.6,1.7c-0.1,0.6-0.2,1.3-0.2,1.9v1h7
			C163.1,122.5,163,121.6,162.9,120.8z M0,0v232h232V0H0z M149.6,121.2c0.2-1.7,0.8-3.1,1.5-4.4c0.8-1.3,1.8-2.3,3.2-3.1
			c1.4-0.8,3.3-1.1,5.6-1.1c2,0,3.6,0.3,4.9,1c1.3,0.7,2.3,1.6,3,2.8c0.7,1.2,1.2,2.6,1.5,4.3c0.3,1.7,0.4,3.6,0.4,5.6v1.5H156v2
			c0,0.8,0.1,1.6,0.2,2.3c0.1,0.8,0.3,1.4,0.6,2c0.3,0.6,0.6,1,1,1.4c0.4,0.4,1,0.5,1.6,0.5c1.2,0,2-0.4,2.6-1.2
			c0.5-0.8,0.9-2.1,1.1-3.8h6.2c-0.1,3.1-1,5.5-2.5,7.1c-1.5,1.6-4,2.5-7.2,2.5c-2.5,0-4.5-0.4-5.9-1.2c-1.4-0.8-2.4-1.9-3.1-3.3
			c-0.7-1.4-1.1-2.9-1.2-4.6s-0.2-3.4-0.2-5.1C149.2,124.6,149.3,122.9,149.6,121.2z M131.5,69h2.9l4.9,10H136l-3.1-6.4l-3.1,6.4
			h-3.2L131.5,69z M125,113.1h6.9v18.6c0,1.4,0.2,2.4,0.7,2.9s1.2,0.8,2.2,0.8c2.4,0,3.7-1.5,3.7-4.5V113h6.9v27h-6.6v-3.1
			c-0.7,1.3-1.7,2.3-2.9,2.9s-2.5,0.8-4,0.8c-2.2,0-3.9-0.6-5.1-1.7c-1.2-1.2-1.8-3.1-1.8-5.8V113.1z M115.9,69h2.9l4.9,10h-3.2
			l-3.1-6.4l-3.1,6.4H111L115.9,69z M113.7,112.5c2.2,0,3.9,0.6,5.1,1.8s1.8,3.1,1.8,5.9v20h-6.9v-18.5c0-1.4-0.2-2.4-0.7-2.9
			c-0.5-0.6-1.2-0.8-2.2-0.8c-2.4,0-3.6,1.5-3.6,4.5V140h-6.9v-26.9h6.4v3.2h0.1c0.7-1.3,1.7-2.3,2.9-2.9
			C110.9,112.8,112.2,112.5,113.7,112.5z M100.3,69h2.9l4.9,10h-3.2l-3.1-6.4L98.6,79h-3.2L100.3,69z M75.6,129.6
			c0.3-0.9,0.7-1.7,1.2-2.3c0.6-0.7,1.2-1.2,2.1-1.6c0.9-0.4,1.9-0.8,3.1-1.2l3.9-1c1-0.3,1.8-0.6,2.1-1.1s0.6-1.2,0.6-2
			c0-1-0.2-1.8-0.7-2.4s-1.3-0.9-2.5-0.9c-1.1,0-1.9,0.3-2.4,1c-0.5,0.6-0.8,1.5-0.8,2.5v0.8H76v-0.7c0-1.6,0.2-2.9,0.8-3.9
			c0.5-1.1,1.2-1.9,2-2.6c0.9-0.6,1.9-1.1,3-1.4c1.1-0.3,2.4-0.4,3.7-0.4c2.1,0,3.7,0.2,5,0.6c1.3,0.4,2.2,1,2.9,1.7
			c0.7,0.7,1.2,1.6,1.4,2.6s0.4,2.1,0.4,3.3v14.1c0,1.3,0.1,2.2,0.2,3c0.1,0.7,0.3,1.5,0.7,2.2h-6.6c-0.2-0.4-0.4-0.9-0.5-1.4
			s-0.2-1-0.3-1.4h-0.1c-0.8,1.4-1.7,2.3-2.8,2.7c-1.1,0.4-2.4,0.6-4.1,0.6c-1.2,0-2.2-0.2-3-0.6c-0.8-0.4-1.5-1-2-1.7
			c-0.5-0.7-0.9-1.6-1.1-2.5c-0.2-0.9-0.4-1.8-0.4-2.7C75.2,131.6,75.3,130.5,75.6,129.6z M64.3,104.3h6.9V140h-6.9V104.3z
			 M47.3,117.8v-4.7h3.5v-3c0-1.2,0.2-2.2,0.5-3c0.3-0.8,0.8-1.5,1.4-2c0.6-0.5,1.4-0.9,2.3-1.1s1.9-0.3,3-0.3c1.2,0,2.5,0,3.7,0.1
			v4.9h-1.3c-1,0-1.6,0.2-2.1,0.5c-0.4,0.3-0.6,0.9-0.6,1.6v2.3h4v4.7h-4V140h-6.9v-22.2H47.3z M179.8,167.1h-125v-2.5h125V167.1z
			 M187.4,119.1c-0.4,0-0.7-0.1-1.1-0.1h-1.1c-0.6,0-1.2,0.1-1.8,0.2c-0.6,0.2-1.2,0.4-1.7,0.8s-0.9,0.9-1.2,1.5s-0.5,1.4-0.5,2.3
			V140h-6.9v-26.9h6.8v3.6h0.1c0.7-1.3,1.5-2.3,2.5-3.1s2.2-1.2,3.7-1.2h0.6c0.2,0,0.4,0,0.6,0.1V119.1z"/>
	</g>
</g>
</svg>
