<?xml version="1.0" encoding="utf-8"?>
<!-- Generator: Adobe Illustrator 18.1.1, SVG Export Plug-In . SVG Version: 6.00 Build 0)  -->
<svg version="1.1" id="Layer_1" xmlns="http://www.w3.org/2000/svg" xmlns:xlink="http://www.w3.org/1999/xlink" x="0px" y="0px"
	 viewBox="0 0 232 232" enable-background="new 0 0 232 232" xml:space="preserve">
<g>
	<g>
		<path d="M52.9,117.7c-0.8,0-1.4,0.2-1.9,0.5s-0.8,0.9-1.1,1.6c-0.3,0.8-0.4,1.8-0.5,3c-0.1,1.2-0.1,2.8-0.1,4.6
			c-0.1,0.9-0.1,1.8,0,2.7c0.1,0.8,0.2,1.6,0.5,2.2c0.2,0.6,0.6,1.2,1.1,1.5c0.4,0.4,1,0.6,1.8,0.6c0.7,0,1.3-0.2,1.8-0.6
			c0.5-0.4,0.9-0.9,1.2-1.6s0.5-1.5,0.6-2.4c0.1-1,0.2-2,0.2-3.1c0-3.3-0.3-5.6-0.8-7C55.2,118.3,54.2,117.7,52.9,117.7z
			 M117.9,133.4c0.2,0.8,0.6,1.5,1.1,2s1.2,0.7,2,0.7c1.4,0,2.4-0.7,2.9-2.2s0.8-3.9,0.8-7.2c0-3.4-0.3-5.8-0.8-7.2
			c-0.5-1.5-1.5-2.2-2.9-2.2c-0.8,0-1.5,0.2-2,0.7s-0.9,1.1-1.1,2c-0.2,0.8-0.4,1.8-0.5,3c-0.1,1.2-0.1,2.4-0.1,3.8
			c0,1.1,0.1,2.4,0.1,3.6C117.5,131.6,117.6,132.6,117.9,133.4z M0,0v232h232V0H0z M142,115.9c0.9-1.2,1.8-2.1,2.9-2.6
			c1.1-0.5,2.4-0.8,3.9-0.8c1.6,0,2.9,0.4,4,1.1c1.1,0.7,1.8,1.8,2.2,3.2h0.1c0.5-1.4,1.4-2.5,2.6-3.2c1.2-0.7,2.6-1.1,4.2-1.1
			c2.3,0,4,0.7,5.1,2.1c1.1,1.4,1.6,3.4,1.6,6V140h-6.9v-18.8c0-1.1-0.2-2-0.6-2.6c-0.4-0.6-1.1-0.9-2.1-0.9c-1.1,0-2,0.4-2.6,1.1
			c-0.7,0.7-1,1.9-1,3.5V140h-6.9v-18.8c0-1.1-0.2-2-0.6-2.6c-0.4-0.6-1.1-0.9-2.1-0.9c-1.1,0-2,0.4-2.6,1.1c-0.7,0.7-1,1.9-1,3.5
			V140h-6.9v-26.9h6.6L142,115.9L142,115.9z M131.5,69h2.9l4.9,10H136l-3.1-6.4l-3.1,6.4h-3.2L131.5,69z M115.9,69h2.9l4.9,10h-3.2
			l-3.1-6.4l-3.1,6.4H111L115.9,69z M111,120.5c0.4-1.8,1-3.2,1.8-4.4c0.8-1.2,1.9-2.1,3.3-2.7c1.4-0.6,3-0.9,5-0.9
			c2.1,0,3.8,0.2,5.1,0.8c1.4,0.6,2.5,1.5,3.2,2.7c0.8,1.2,1.4,2.7,1.7,4.4c0.3,1.8,0.5,3.8,0.5,6.2c0,2.3-0.2,4.3-0.5,6.1
			c-0.4,1.8-1,3.2-1.8,4.4c-0.8,1.2-1.9,2.1-3.3,2.6c-1.3,0.6-3,0.8-5,0.8c-2.1,0-3.8-0.2-5.2-0.8c-1.4-0.6-2.5-1.4-3.2-2.6
			c-0.8-1.2-1.4-2.7-1.7-4.5s-0.5-3.8-0.5-6.2C110.4,124.3,110.6,122.2,111,120.5z M100.3,69h2.9l4.9,10h-3.2l-3.1-6.4L98.6,79h-3.2
			L100.3,69z M86.5,113.1h6.4v3.2H93c0.7-1.3,1.7-2.3,2.9-2.9c1.2-0.6,2.5-0.9,4-0.9c2.2,0,3.9,0.6,5.1,1.8s1.8,3.1,1.8,5.9v20h-6.9
			v-18.5c0-1.4-0.2-2.4-0.7-2.9c-0.5-0.6-1.2-0.8-2.2-0.8c-2.4,0-3.6,1.5-3.6,4.5V140h-6.9V113.1z M67.7,122.6h14.1v5.9H67.7V122.6z
			 M45,147.2c-1.6-1.2-2.4-3-2.4-5.3h6.6c0,0.9,0.3,1.6,1,2.1c0.3,0.2,0.7,0.4,1.1,0.5c0.4,0.1,0.8,0.2,1.2,0.2c1.4,0,2.4-0.5,3-1.4
			c0.6-0.9,0.9-2,0.9-3.3v-3.5h-0.1c-0.7,1-1.6,1.8-2.6,2.4c-1,0.6-2.1,0.9-3.2,0.9c-2.7,0-4.8-1-6.2-3.1c-1.4-2.1-2.1-5.6-2.1-10.5
			c0-1.6,0.1-3.2,0.3-4.8c0.2-1.6,0.6-3.1,1.1-4.4c0.6-1.3,1.4-2.4,2.6-3.2c1.1-0.8,2.6-1.2,4.5-1.2c1,0,2,0.3,3,0.8
			s1.9,1.5,2.5,2.9h0.1v-3H63v25.4c0,3.5-0.9,6.1-2.6,7.8c-1.7,1.7-4.6,2.6-8.6,2.6C48.9,149.1,46.6,148.5,45,147.2z M179.8,167.1
			h-125v-2.5h125V167.1z M192.8,127.8h-13.6v2h-0.1c0,0.8,0.1,1.6,0.2,2.3c0.1,0.8,0.3,1.4,0.6,2c0.3,0.6,0.6,1,1,1.4
			c0.4,0.4,1,0.5,1.6,0.5c1.2,0,2-0.4,2.6-1.2c0.5-0.8,0.9-2.1,1.1-3.8h6.2c-0.1,3.1-1,5.5-2.5,7.1c-1.5,1.6-4,2.5-7.2,2.5
			c-2.5,0-4.5-0.4-5.9-1.2c-1.4-0.8-2.4-1.9-3.1-3.3c-0.7-1.4-1.1-2.9-1.2-4.6c-0.2-1.7-0.2-3.4-0.2-5.1c0-1.8,0.1-3.5,0.4-5.2
			c0.2-1.7,0.8-3.1,1.5-4.4c0.8-1.3,1.8-2.3,3.2-3.1c1.4-0.8,3.3-1.1,5.6-1.1c2,0,3.6,0.3,4.9,1c1.3,0.7,2.3,1.6,3,2.8
			c0.7,1.2,1.2,2.6,1.5,4.3s0.4,3.6,0.4,5.6V127.8z M185.5,118.8c-0.2-0.6-0.6-1-1.1-1.2c-0.4-0.3-1-0.4-1.7-0.4s-1.3,0.2-1.7,0.5
			c-0.5,0.3-0.8,0.7-1.1,1.2c-0.3,0.5-0.5,1.1-0.6,1.7c-0.1,0.6-0.2,1.3-0.2,1.9v1h7c0.1-1,0-1.9-0.1-2.7
			C185.9,120,185.7,119.3,185.5,118.8z"/>
	</g>
</g>
</svg>
