<?xml version="1.0" encoding="utf-8"?>
<!-- Generator: Adobe Illustrator 19.2.1, SVG Export Plug-In . SVG Version: 6.00 Build 0)  -->
<svg version="1.1" id="Layer_1" xmlns="http://www.w3.org/2000/svg" xmlns:xlink="http://www.w3.org/1999/xlink" x="0px" y="0px"
	 viewBox="0 0 928 362" style="enable-background:new 0 0 928 362;" xml:space="preserve">
<g>
	<path d="M340.5,180.7c-1.6,0.7-3.2,1-4.8,1c-2.6,0-4.9-0.4-6.9-1.3c-2.1-0.9-3.8-2.1-5.2-3.7c-1.4-1.6-2.5-3.4-3.2-5.5
		c-0.8-2.1-1.1-4.4-1.1-6.8c0-2.5,0.4-4.8,1.1-7c0.8-2.1,1.8-4,3.2-5.6c1.4-1.6,3.1-2.9,5.2-3.8c2.1-0.9,4.4-1.4,6.9-1.4
		c1.7,0,3.4,0.3,5,0.8c1.6,0.5,3.1,1.3,4.4,2.3c1.3,1,2.4,2.2,3.2,3.7c0.8,1.5,1.4,3.2,1.6,5.1h-7c-0.4-1.9-1.3-3.3-2.5-4.2
		c-1.3-0.9-2.8-1.4-4.6-1.4c-1.7,0-3.1,0.3-4.2,1c-1.2,0.6-2.1,1.5-2.8,2.6s-1.2,2.3-1.6,3.7c-0.3,1.4-0.5,2.8-0.5,4.3
		c0,1.4,0.2,2.8,0.5,4.1c0.3,1.3,0.9,2.5,1.6,3.6c0.7,1.1,1.7,1.9,2.8,2.6c1.2,0.6,2.6,1,4.2,1c2.4,0,4.3-0.6,5.7-1.9
		c1.3-1.2,2.1-3,2.3-5.4h-7.4v-5.5h14.1V181h-4.7l-0.8-3.8C343.5,178.9,342.1,180.1,340.5,180.7z"/>
	<path d="M355.7,163.6c0.6-1.6,1.4-2.9,2.5-4c1.1-1.1,2.4-2,3.9-2.6s3.3-0.9,5.2-0.9s3.6,0.3,5.2,0.9c1.6,0.6,2.9,1.5,4,2.6
		c1.1,1.1,1.9,2.5,2.5,4c0.6,1.6,0.9,3.3,0.9,5.3c0,1.9-0.3,3.7-0.9,5.3c-0.6,1.6-1.4,2.9-2.5,4s-2.4,2-4,2.6
		c-1.6,0.6-3.3,0.9-5.2,0.9s-3.6-0.3-5.2-0.9c-1.5-0.6-2.9-1.4-3.9-2.6s-1.9-2.5-2.5-4c-0.6-1.6-0.9-3.3-0.9-5.3
		C354.8,166.9,355.1,165.2,355.7,163.6z M361.8,171.7c0.2,0.9,0.5,1.8,1,2.5c0.5,0.7,1.1,1.3,1.8,1.8c0.8,0.4,1.7,0.7,2.8,0.7
		s2.1-0.2,2.8-0.7c0.8-0.4,1.4-1,1.8-1.8c0.5-0.7,0.8-1.6,1-2.5c0.2-0.9,0.3-1.9,0.3-2.8c0-1-0.1-1.9-0.3-2.9
		c-0.2-0.9-0.5-1.8-1-2.5c-0.5-0.7-1.1-1.3-1.8-1.8c-0.8-0.5-1.7-0.7-2.8-0.7s-2.1,0.2-2.8,0.7c-0.8,0.5-1.4,1-1.8,1.8
		c-0.5,0.7-0.8,1.6-1,2.5c-0.2,0.9-0.3,1.9-0.3,2.9C361.5,169.8,361.6,170.8,361.8,171.7z"/>
	<path d="M390.6,156.7v3.4h0.1c0.8-1.4,1.9-2.4,3.3-3.1c1.3-0.6,2.7-1,4.1-1c1.8,0,3.2,0.2,4.4,0.7c1.1,0.5,2,1.2,2.7,2
		c0.7,0.9,1.1,1.9,1.4,3.1c0.3,1.2,0.4,2.6,0.4,4.1V181h-6.7v-13.7c0-2-0.3-3.5-0.9-4.5c-0.6-1-1.7-1.5-3.3-1.5
		c-1.8,0-3.1,0.5-3.9,1.6c-0.8,1.1-1.2,2.9-1.2,5.3V181h-6.7v-24.3H390.6z"/>
	<path d="M419.3,175.2c1,1,2.4,1.5,4.3,1.5c1.3,0,2.5-0.3,3.5-1c1-0.7,1.6-1.4,1.8-2.1h5.9c-0.9,2.9-2.4,5-4.3,6.3
		c-1.9,1.3-4.3,1.9-7,1.9c-1.9,0-3.6-0.3-5.2-0.9c-1.5-0.6-2.8-1.5-3.9-2.6c-1.1-1.1-1.9-2.5-2.5-4c-0.6-1.6-0.9-3.3-0.9-5.2
		c0-1.8,0.3-3.5,0.9-5.1c0.6-1.6,1.4-2.9,2.5-4.1c1.1-1.1,2.4-2,3.9-2.7c1.5-0.7,3.2-1,5.1-1c2.1,0,3.9,0.4,5.4,1.2
		c1.5,0.8,2.8,1.9,3.8,3.2c1,1.3,1.7,2.9,2.1,4.6c0.4,1.7,0.6,3.5,0.5,5.4h-17.5C417.7,172.6,418.3,174.2,419.3,175.2z M426.8,162.4
		c-0.8-0.9-2-1.3-3.6-1.3c-1.1,0-2,0.2-2.7,0.5c-0.7,0.4-1.3,0.8-1.7,1.3c-0.4,0.5-0.7,1.1-0.9,1.7c-0.2,0.6-0.3,1.1-0.3,1.6h10.9
		C428.2,164.5,427.6,163.3,426.8,162.4z"/>
	<path d="M458.5,172.7c0.4,0.8,0.9,1.4,1.6,1.9c0.7,0.5,1.5,0.8,2.4,1.1c0.9,0.2,1.8,0.4,2.8,0.4c0.7,0,1.4-0.1,2.1-0.2
		c0.8-0.1,1.5-0.3,2.1-0.6c0.7-0.3,1.2-0.7,1.6-1.3c0.4-0.5,0.7-1.2,0.7-2.1c0-0.9-0.3-1.6-0.9-2.2c-0.6-0.6-1.3-1-2.3-1.4
		c-0.9-0.4-2-0.7-3.2-1c-1.2-0.3-2.4-0.6-3.6-0.9c-1.3-0.3-2.5-0.7-3.7-1.2c-1.2-0.5-2.3-1-3.2-1.8c-0.9-0.7-1.7-1.6-2.3-2.7
		c-0.6-1.1-0.9-2.4-0.9-3.9c0-1.7,0.4-3.2,1.1-4.5c0.7-1.3,1.7-2.3,2.9-3.2c1.2-0.8,2.5-1.5,4-1.9c1.5-0.4,3-0.6,4.5-0.6
		c1.8,0,3.4,0.2,5.1,0.6c1.6,0.4,3,1,4.3,1.9c1.3,0.9,2.2,2,3,3.4c0.7,1.4,1.1,3,1.1,5h-7.1c-0.1-1-0.3-1.8-0.6-2.5
		c-0.4-0.7-0.8-1.2-1.4-1.6c-0.6-0.4-1.3-0.6-2-0.8c-0.8-0.2-1.6-0.2-2.5-0.2c-0.6,0-1.2,0.1-1.8,0.2c-0.6,0.1-1.1,0.3-1.6,0.7
		c-0.5,0.3-0.9,0.7-1.2,1.2c-0.3,0.5-0.5,1.1-0.5,1.8c0,0.7,0.1,1.2,0.4,1.6s0.7,0.8,1.5,1.1c0.7,0.3,1.8,0.7,3.1,1
		c1.3,0.3,3,0.8,5.1,1.3c0.6,0.1,1.5,0.4,2.6,0.7c1.1,0.3,2.2,0.9,3.3,1.6c1.1,0.7,2,1.7,2.8,2.9c0.8,1.2,1.2,2.7,1.2,4.6
		c0,1.5-0.3,3-0.9,4.3c-0.6,1.3-1.5,2.5-2.7,3.4c-1.2,1-2.6,1.7-4.4,2.2c-1.7,0.5-3.8,0.8-6,0.8c-1.8,0-3.6-0.2-5.4-0.7
		c-1.7-0.5-3.3-1.2-4.6-2.1c-1.3-1-2.4-2.2-3.2-3.7c-0.8-1.5-1.2-3.3-1.1-5.4h7.1C457.9,171,458.1,171.9,458.5,172.7z"/>
	<path d="M499.1,181v-3.4H499c-0.8,1.4-1.9,2.4-3.3,3.1c-1.3,0.6-2.7,0.9-4.1,0.9c-1.8,0-3.3-0.2-4.4-0.7c-1.1-0.5-2-1.1-2.7-2
		s-1.1-1.9-1.4-3.1c-0.3-1.2-0.4-2.6-0.4-4.1v-14.9h6.7v13.7c0,2,0.3,3.5,0.9,4.5c0.6,1,1.7,1.5,3.3,1.5c1.8,0,3.1-0.5,3.9-1.6
		c0.8-1.1,1.2-2.9,1.2-5.3v-12.7h6.7V181H499.1z"/>
	<path d="M516.9,156.7v4.5h0.1c0.3-0.8,0.7-1.4,1.3-2.1c0.5-0.6,1.1-1.2,1.8-1.6c0.7-0.5,1.4-0.8,2.2-1.1c0.8-0.3,1.6-0.4,2.4-0.4
		c0.4,0,0.9,0.1,1.5,0.2v6.2c-0.3-0.1-0.7-0.1-1.1-0.2s-0.9-0.1-1.3-0.1c-1.2,0-2.3,0.2-3.1,0.6c-0.8,0.4-1.5,1-2,1.7
		c-0.5,0.7-0.9,1.5-1.1,2.5c-0.2,0.9-0.3,2-0.3,3.1v11h-6.7v-24.3H516.9z"/>
	<path d="M526.3,161.2v-4.5h4v-1.9c0-2.2,0.7-3.9,2-5.3c1.3-1.4,3.4-2.1,6.1-2.1c0.6,0,1.2,0,1.8,0.1c0.6,0,1.2,0.1,1.7,0.1v5
		c-0.8-0.1-1.6-0.1-2.4-0.1c-0.9,0-1.6,0.2-1.9,0.6c-0.4,0.4-0.6,1.1-0.6,2.1v1.5h4.6v4.5H537V181h-6.7v-19.8H526.3z"/>
	<path d="M544.7,152.9v-5.5h6.7v5.5H544.7z M551.3,156.7V181h-6.7v-24.3H551.3z"/>
	<path d="M563,156.7v3.4h0.1c0.8-1.4,1.9-2.4,3.3-3.1c1.3-0.6,2.7-1,4.1-1c1.8,0,3.2,0.2,4.4,0.7c1.1,0.5,2,1.2,2.7,2
		c0.7,0.9,1.1,1.9,1.4,3.1c0.3,1.2,0.4,2.6,0.4,4.1V181h-6.7v-13.7c0-2-0.3-3.5-0.9-4.5c-0.6-1-1.7-1.5-3.3-1.5
		c-1.8,0-3.1,0.5-3.9,1.6c-0.8,1.1-1.2,2.9-1.2,5.3V181h-6.7v-24.3H563z"/>
	<path d="M607.4,182.8c-0.3,1.3-0.8,2.4-1.7,3.5c-0.9,1.1-2.1,2-3.8,2.8s-3.9,1.1-6.7,1.1c-1.2,0-2.4-0.1-3.6-0.4
		c-1.2-0.3-2.4-0.8-3.4-1.4c-1-0.6-1.9-1.4-2.5-2.4c-0.7-1-1.1-2.2-1.2-3.5h6.6c0.3,1.3,0.9,2.1,1.8,2.6c0.9,0.5,2,0.7,3.1,0.7
		c1.9,0,3.2-0.6,4.1-1.7c0.9-1.1,1.3-2.6,1.2-4.3v-3.2h-0.1c-0.7,1.3-1.7,2.2-3.1,2.8c-1.3,0.6-2.7,0.9-4.2,0.9
		c-1.8,0-3.4-0.3-4.7-1c-1.3-0.6-2.4-1.5-3.2-2.6c-0.8-1.1-1.5-2.4-1.9-3.9c-0.4-1.5-0.6-3.1-0.6-4.7c0-1.6,0.2-3.1,0.7-4.5
		c0.5-1.5,1.1-2.7,2-3.9c0.9-1.1,2-2,3.3-2.7c1.3-0.7,2.8-1,4.5-1c1.6,0,3,0.3,4.2,0.9c1.2,0.6,2.2,1.6,3,3h0.1v-3.2h6.3v22.7
		C607.8,180.4,607.7,181.5,607.4,182.8z M598.3,174.7c0.7-0.4,1.3-0.9,1.8-1.5c0.5-0.6,0.8-1.3,1.1-2.1c0.2-0.8,0.4-1.6,0.4-2.5
		c0-1-0.1-2-0.3-2.8c-0.2-0.9-0.5-1.7-0.9-2.4c-0.4-0.7-1-1.2-1.7-1.6c-0.7-0.4-1.6-0.6-2.7-0.6c-0.9,0-1.7,0.2-2.4,0.6
		c-0.7,0.4-1.2,0.9-1.7,1.5c-0.5,0.6-0.8,1.4-1,2.2c-0.2,0.8-0.3,1.7-0.3,2.6c0,0.9,0.1,1.7,0.3,2.6c0.2,0.9,0.5,1.6,0.9,2.3
		c0.4,0.7,1,1.3,1.7,1.7c0.7,0.4,1.6,0.7,2.6,0.7C596.7,175.3,597.6,175.1,598.3,174.7z"/>
</g>
<g>
	<path d="M434.5,117.1c-0.3,0.7-0.7,1.3-1.1,1.9c-0.4,0.6-0.9,1.1-1.5,1.6c-0.5,0.5-1.2,0.8-1.9,1.1s-1.4,0.4-2.2,0.4
		c-1,0-1.9-0.2-2.7-0.5s-1.6-0.7-2.3-1.1c-0.8-0.4-1.6-0.8-2.4-1.1s-1.8-0.5-2.8-0.5c-0.5,0-1,0.1-1.4,0.3c-0.4,0.2-0.8,0.5-1.1,0.8
		c-0.3,0.3-0.6,0.7-0.8,1.1c-0.2,0.4-0.4,0.8-0.6,1.2l-2.7-3.9c0.2-0.7,0.5-1.3,1-1.9c0.4-0.6,0.9-1.1,1.5-1.6
		c0.6-0.5,1.2-0.8,1.9-1.1c0.7-0.3,1.4-0.4,2.2-0.4c0.8,0,1.6,0.2,2.4,0.5c0.9,0.3,1.8,0.7,2.6,1.1c0.9,0.4,1.7,0.8,2.6,1.1
		c0.8,0.3,1.6,0.5,2.4,0.5c0.5,0,0.9-0.1,1.3-0.3c0.4-0.2,0.8-0.5,1.1-0.8c0.3-0.3,0.6-0.7,0.9-1.1c0.3-0.4,0.6-0.8,0.8-1.2
		L434.5,117.1z"/>
	<path d="M475.8,117.1c-0.3,0.7-0.7,1.3-1.1,1.9c-0.4,0.6-0.9,1.1-1.5,1.6c-0.5,0.5-1.2,0.8-1.9,1.1s-1.4,0.4-2.2,0.4
		c-1,0-1.9-0.2-2.7-0.5s-1.6-0.7-2.3-1.1c-0.8-0.4-1.6-0.8-2.4-1.1s-1.8-0.5-2.8-0.5c-0.5,0-1,0.1-1.4,0.3c-0.4,0.2-0.8,0.5-1.1,0.8
		c-0.3,0.3-0.6,0.7-0.8,1.1c-0.2,0.4-0.4,0.8-0.6,1.2l-2.7-3.9c0.2-0.7,0.5-1.3,1-1.9c0.4-0.6,0.9-1.1,1.5-1.6
		c0.6-0.5,1.2-0.8,1.9-1.1c0.7-0.3,1.4-0.4,2.2-0.4c0.8,0,1.6,0.2,2.4,0.5c0.9,0.3,1.8,0.7,2.6,1.1c0.9,0.4,1.7,0.8,2.6,1.1
		c0.8,0.3,1.6,0.5,2.4,0.5c0.5,0,0.9-0.1,1.3-0.3c0.4-0.2,0.8-0.5,1.1-0.8c0.3-0.3,0.6-0.7,0.9-1.1c0.3-0.4,0.6-0.8,0.8-1.2
		L475.8,117.1z"/>
	<path d="M517,117.1c-0.3,0.7-0.7,1.3-1.1,1.9c-0.4,0.6-0.9,1.1-1.5,1.6c-0.5,0.5-1.2,0.8-1.9,1.1s-1.4,0.4-2.2,0.4
		c-1,0-1.9-0.2-2.7-0.5s-1.6-0.7-2.3-1.1c-0.8-0.4-1.6-0.8-2.4-1.1s-1.8-0.5-2.8-0.5c-0.5,0-1,0.1-1.4,0.3c-0.4,0.2-0.8,0.5-1.1,0.8
		c-0.3,0.3-0.6,0.7-0.8,1.1c-0.2,0.4-0.4,0.8-0.6,1.2l-2.7-3.9c0.2-0.7,0.5-1.3,1-1.9c0.4-0.6,0.9-1.1,1.5-1.6
		c0.6-0.5,1.2-0.8,1.9-1.1c0.7-0.3,1.4-0.4,2.2-0.4c0.8,0,1.6,0.2,2.4,0.5c0.9,0.3,1.8,0.7,2.6,1.1c0.9,0.4,1.7,0.8,2.6,1.1
		c0.8,0.3,1.6,0.5,2.4,0.5c0.5,0,0.9-0.1,1.3-0.3c0.4-0.2,0.8-0.5,1.1-0.8c0.3-0.3,0.6-0.7,0.9-1.1c0.3-0.4,0.6-0.8,0.8-1.2
		L517,117.1z"/>
</g>
<rect x="330.6" y="215" width="266.8" height="3"/>
</svg>
