<?xml version="1.0" encoding="utf-8"?>
<!-- Generator: Adobe Illustrator 18.1.1, SVG Export Plug-In . SVG Version: 6.00 Build 0)  -->
<svg version="1.1" id="Layer_1" xmlns="http://www.w3.org/2000/svg" xmlns:xlink="http://www.w3.org/1999/xlink" x="0px" y="0px"
	 viewBox="0 0 232 232" enable-background="new 0 0 232 232" xml:space="preserve">
<g>
	<g>
		<path d="M0,0v232h232V0H0z M158,113.1h3.5v-7.7h6.8v7.7h4v4.7h-4v14.5c0,1.1,0.2,1.8,0.5,2.3c0.3,0.5,1,0.7,2,0.7h0.8
			c0.3,0,0.5,0,0.8-0.1v4.8c-0.8,0-1.5,0-2.2,0.1c-0.7,0.1-1.5,0.1-2.3,0.1c-1.3,0-2.4-0.1-3.3-0.3c-0.8-0.2-1.5-0.5-2-1.1
			c-0.4-0.6-0.8-1.3-0.9-2.2c-0.2-0.9-0.2-2-0.2-3.4v-15.4H158V113.1z M148.1,103.9h6.9v5.9h-6.9V103.9z M148.1,113.1h6.9V140h-6.9
			V113.1z M145.5,103.8v4.9h-1.3c-1,0-1.7,0.2-2.1,0.5c-0.4,0.3-0.6,0.9-0.6,1.6v2.3h4v4.7h-4V140h-6.9v-22.2h-3.5v-4.7h3.5v-3
			c0-1.2,0.2-2.2,0.5-3c0.3-0.8,0.8-1.5,1.4-2c0.6-0.5,1.4-0.9,2.3-1.1c0.9-0.2,1.9-0.3,3-0.3C143,103.7,144.3,103.7,145.5,103.8z
			 M131.5,69h2.9l4.9,10H136l-3.1-6.4l-3.1,6.4h-3.2L131.5,69z M127,103.7c1.2,0,2.5,0,3.7,0.1v4.9h-1.4c-1,0-1.6,0.2-2,0.5
			c-0.4,0.3-0.6,0.9-0.6,1.6v2.3h4v4.7h-4V140h-6.9v-22.2h-3.5v-4.7h3.5v-3c0-1.2,0.2-2.2,0.5-3c0.3-0.8,0.8-1.5,1.4-2
			s1.4-0.9,2.3-1.1C124.9,103.8,125.9,103.7,127,103.7z M115.9,69h2.9l4.9,10h-3.2l-3.1-6.4l-3.1,6.4H111L115.9,69z M100.3,69h2.9
			l4.9,10h-3.2l-3.1-6.4L98.6,79h-3.2L100.3,69z M93.8,129.6c0.3-0.9,0.7-1.7,1.2-2.3c0.6-0.7,1.2-1.2,2.1-1.6
			c0.9-0.4,1.9-0.8,3.1-1.2l3.9-1c1-0.3,1.8-0.6,2.1-1.1s0.6-1.2,0.6-2c0-1-0.2-1.8-0.7-2.4s-1.3-0.9-2.5-0.9c-1.1,0-1.9,0.3-2.4,1
			c-0.5,0.6-0.8,1.5-0.8,2.5v0.8h-6.2v-0.7c0-1.6,0.2-2.9,0.8-3.9c0.5-1.1,1.2-1.9,2-2.6c0.9-0.6,1.9-1.1,3-1.4s2.4-0.4,3.7-0.4
			c2.1,0,3.7,0.2,5,0.6c1.3,0.4,2.2,1,2.9,1.7c0.7,0.7,1.2,1.6,1.4,2.6s0.4,2.1,0.4,3.3v14.1c0,1.3,0.1,2.2,0.2,3
			c0.1,0.7,0.3,1.5,0.7,2.2h-6.6c-0.2-0.4-0.4-0.9-0.5-1.4c-0.1-0.5-0.2-1-0.3-1.4h-0.1c-0.8,1.4-1.7,2.3-2.8,2.7
			c-1.1,0.4-2.4,0.6-4.1,0.6c-1.2,0-2.2-0.2-3-0.6c-0.8-0.4-1.5-1-2-1.7c-0.5-0.7-0.9-1.6-1.1-2.5c-0.2-0.9-0.4-1.8-0.4-2.7
			C93.4,131.6,93.5,130.5,93.8,129.6z M77.6,113.1h6.6v3.6h0.1c0.7-1.3,1.5-2.3,2.5-3.1s2.2-1.2,3.7-1.2h0.6c0.2,0,0.4,0,0.6,0.1
			v6.6c-0.4,0-0.7-0.1-1.1-0.1h-1.1c-0.6,0-1.2,0.1-1.8,0.2c-0.6,0.2-1.1,0.4-1.6,0.8s-0.9,0.9-1.2,1.5c-0.3,0.6-0.4,1.4-0.4,2.3
			V140h-6.9V113.1z M52.3,141.9H59c0,0.9,0.3,1.6,1,2.1c0.3,0.2,0.7,0.4,1.1,0.5c0.4,0.1,0.8,0.2,1.2,0.2c1.4,0,2.4-0.5,3-1.4
			c0.6-0.9,0.9-2,0.9-3.3v-3.5H66c-0.7,1-1.6,1.8-2.6,2.4c-1,0.6-2.1,0.9-3.2,0.9c-2.7,0-4.8-1-6.2-3.1c-1.4-2.1-2.1-5.6-2.1-10.5
			c0-1.6,0.1-3.2,0.3-4.8c0.2-1.6,0.6-3.1,1.1-4.4c0.6-1.3,1.4-2.4,2.6-3.2c1.1-0.8,2.6-1.2,4.5-1.2c1,0,2,0.3,3,0.8
			s1.9,1.5,2.5,2.9H66v-3h6.6v25.4h0.1c0,3.5-0.9,6.1-2.6,7.8c-1.7,1.7-4.6,2.6-8.6,2.6c-2.9,0-5.2-0.6-6.8-1.9
			C53.1,146,52.3,144.2,52.3,141.9z M179.8,167.1h-125v-2.5h125V167.1z M181.8,140h-6.9v-26.9h6.9V140z M181.8,109.8h-6.9v-5.9h6.9
			V109.8z M102.5,136c0.5,0,0.9-0.1,1.4-0.2c0.5-0.2,1-0.4,1.4-0.7c0.4-0.3,0.8-0.8,1-1.3c0.3-0.5,0.4-1.2,0.4-1.9v-5.3
			c-0.4,0.3-0.9,0.6-1.4,0.8c-0.5,0.2-1,0.4-1.5,0.5c-1.4,0.3-2.4,0.8-3,1.5c-0.6,0.7-0.9,1.6-0.9,2.8c0,1,0.2,1.9,0.6,2.7
			C100.9,135.7,101.6,136,102.5,136z M65.4,119.7c-0.5-1.4-1.5-2-2.8-2c-0.8,0-1.4,0.2-1.9,0.5s-0.8,0.9-1.1,1.6
			c-0.3,0.8-0.4,1.8-0.5,3c-0.1,1.2-0.1,2.8-0.1,4.6c-0.1,0.9,0,1.8,0,2.7c0.1,0.8,0.2,1.6,0.5,2.2c0.2,0.6,0.6,1.2,1.1,1.5
			c0.4,0.4,1,0.6,1.8,0.6c0.7,0,1.3-0.2,1.8-0.6c0.5-0.4,0.9-0.9,1.2-1.6c0.3-0.7,0.5-1.5,0.6-2.4c0.1-1,0.2-2,0.2-3.1
			C66.2,123.4,65.9,121.1,65.4,119.7z"/>
	</g>
</g>
</svg>
