<?xml version="1.0" encoding="utf-8"?>
<!-- Generator: Adobe Illustrator 18.1.1, SVG Export Plug-In . SVG Version: 6.00 Build 0)  -->
<svg version="1.1" id="Layer_1" xmlns="http://www.w3.org/2000/svg" xmlns:xlink="http://www.w3.org/1999/xlink" x="0px" y="0px"
	 viewBox="0 0 232 232" enable-background="new 0 0 232 232" xml:space="preserve">
<g>
	<g>
		<path d="M129.4,117.8c-1.5,0-2.5,0.7-2.9,2.2c-0.5,1.5-0.7,3.7-0.7,6.6c0.1,2.9,0.3,5.1,0.7,6.6c0.5,1.5,1.4,2.2,2.9,2.2
			s2.5-0.7,3-2.2s0.7-3.7,0.7-6.6c0-2.9-0.2-5.1-0.7-6.6S131,117.8,129.4,117.8z M77.2,133.4c0.2,0.8,0.6,1.5,1.1,2s1.2,0.7,2,0.7
			c1.4,0,2.4-0.7,2.9-2.2s0.8-3.9,0.8-7.2c0-3.4-0.3-5.8-0.8-7.2c-0.5-1.5-1.5-2.2-2.9-2.2c-0.8,0-1.5,0.2-2,0.7s-0.9,1.1-1.1,2
			c-0.2,0.8-0.4,1.8-0.5,3c-0.1,1.2-0.1,2.4-0.1,3.8c0,1.1,0,2.4,0.1,3.6C76.8,131.6,76.9,132.6,77.2,133.4z M0,0v232h232V0H0z
			 M156.7,113.1h6.5v3.2h0.1c0.7-1.3,1.7-2.3,2.8-2.9c1.2-0.6,2.5-0.9,4-0.9c2.2,0,3.9,0.6,5.1,1.8s1.8,3.1,1.8,5.9v20h-6.9v-18.5
			c0-1.4-0.2-2.4-0.7-2.9c-0.5-0.6-1.2-0.8-2.2-0.8c-2.4,0-3.6,1.5-3.6,4.5V140h-6.9V113.1z M144.9,103.9h6.9v5.9h-6.9V103.9z
			 M144.9,113.1h6.9V140h-6.9V113.1z M131.5,69h2.9l4.9,10H136l-3.1-6.4l-3.1,6.4h-3.2L131.5,69z M140,104.4V140h-6.6l-0.1-2.8
			c-0.8,1.3-1.6,2.1-2.6,2.6s-2.1,0.8-3.5,0.8c-2.8,0-4.9-1.1-6.2-3.2c-1.3-2.2-2-5.8-2-10.8s0.7-8.6,2-10.8s3.4-3.3,6.2-3.3
			c1.3,0,2.4,0.3,3.3,0.8s1.7,1.3,2.5,2.4h0.1v-11.3H140z M115.9,69h2.9l4.9,10h-3.2l-3.1-6.4l-3.1,6.4H111L115.9,69z M100.3,69h2.9
			l4.9,10h-3.2l-3.1-6.4L98.6,79h-3.2L100.3,69z M94.5,113.1h6.9v18.6c0,1.4,0.2,2.4,0.7,2.9s1.2,0.8,2.2,0.8c2.4,0,3.6-1.5,3.6-4.5
			V113h6.9v27h-6.6v-2.9c-0.7,1.2-1.7,2.2-2.8,2.7c-1.2,0.6-2.5,0.8-4,0.8c-2.2,0-3.9-0.6-5.1-1.7c-1.2-1.2-1.8-3.1-1.8-5.8V113.1z
			 M70.3,120.5c0.4-1.8,1-3.2,1.8-4.4c0.8-1.2,1.9-2.1,3.3-2.7c1.4-0.6,3-0.9,5-0.9c2.1,0,3.8,0.2,5.1,0.8c1.4,0.6,2.5,1.5,3.2,2.7
			c0.8,1.2,1.4,2.7,1.7,4.4c0.3,1.8,0.5,3.8,0.5,6.2c0,2.3-0.2,4.3-0.6,6.1c-0.4,1.8-1,3.2-1.8,4.4s-1.9,2.1-3.3,2.6
			c-1.4,0.5-3,0.8-5,0.8c-2.1,0-3.8-0.2-5.1-0.8c-1.4-0.6-2.5-1.4-3.2-2.6c-0.8-1.2-1.4-2.7-1.7-4.5s-0.5-3.8-0.5-6.2
			C69.7,124.3,69.9,122.2,70.3,120.5z M52.7,122.4V140h-6.9v-35.7h6.7v11.5h0.1c1.3-2.3,3.5-3.4,6.6-3.4c2.2,0,3.9,0.6,5.1,1.8
			s1.8,3.1,1.8,5.9v20h-6.9v-18.5c0-1.4-0.2-2.4-0.7-2.9c-0.5-0.6-1.2-0.8-2.2-0.8C53.9,117.9,52.7,119.4,52.7,122.4z M179.8,167.1
			h-125v-2.5h125V167.1z M188.8,140h-6.9v-26.9h6.9V140z M188.8,109.8h-6.9v-5.9h6.9V109.8z"/>
	</g>
</g>
</svg>
