<?xml version="1.0" encoding="utf-8"?>
<!-- Generator: Adobe Illustrator 18.1.1, SVG Export Plug-In . SVG Version: 6.00 Build 0)  -->
<svg version="1.1" id="Layer_1" xmlns="http://www.w3.org/2000/svg" xmlns:xlink="http://www.w3.org/1999/xlink" x="0px" y="0px"
	 viewBox="0 0 232 232" enable-background="new 0 0 232 232" xml:space="preserve">
<g>
	<g>
		<path d="M112.8,133.4c0.2,0.8,0.6,1.5,1.1,2s1.2,0.7,2,0.7c1.4,0,2.4-0.7,2.9-2.2s0.8-3.9,0.8-7.2c0-3.4-0.3-5.8-0.8-7.2
			c-0.5-1.5-1.5-2.2-2.9-2.2c-0.8,0-1.5,0.2-2,0.7s-0.9,1.1-1.1,2c-0.2,0.8-0.4,1.8-0.5,3c-0.1,1.2-0.1,2.4-0.1,3.8
			c0,1.1,0,2.4,0.1,3.6C112.4,131.6,112.5,132.6,112.8,133.4z M137.1,126.6c0,2.9,0.2,5.1,0.7,6.6s1.4,2.2,3,2.2
			c1.5,0,2.5-0.7,2.9-2.2c0.5-1.5,0.7-3.7,0.7-6.6c0-2.9-0.2-5.1-0.7-6.6c-0.4-1.5-1.4-2.2-2.9-2.2s-2.5,0.7-3,2.2
			S137.1,123.7,137.1,126.6z M167.9,120.8c-0.1-0.8-0.3-1.5-0.5-2c-0.2-0.6-0.6-1-1.1-1.2c-0.4-0.3-1-0.4-1.7-0.4
			c-0.7,0-1.3,0.2-1.7,0.5c-0.5,0.3-0.8,0.7-1.1,1.2s-0.5,1.1-0.6,1.7c-0.1,0.6-0.2,1.3-0.2,1.9v1h7
			C168.1,122.5,168,121.6,167.9,120.8z M53.9,117.3c-0.8,0-1.5,0.2-2,0.7s-0.9,1.1-1.1,2c-0.2,0.8-0.4,1.8-0.5,3
			c-0.1,1.2-0.1,2.4-0.1,3.8c0,1.1,0.1,2.4,0.1,3.6c0.1,1.2,0.2,2.2,0.5,3c0.2,0.8,0.6,1.5,1.1,2s1.2,0.7,2,0.7
			c1.4,0,2.4-0.7,2.9-2.2s0.8-3.9,0.8-7.2c0-3.4-0.3-5.8-0.8-7.2C56.3,118,55.3,117.3,53.9,117.3z M0,0v232h232V0H0z M154.7,121.2
			c0.2-1.7,0.8-3.1,1.5-4.4c0.8-1.3,1.8-2.3,3.2-3.1c1.4-0.8,3.3-1.1,5.6-1.1c2,0,3.6,0.3,4.9,1c1.3,0.7,2.3,1.6,3,2.8
			c0.7,1.2,1.2,2.6,1.5,4.3s0.4,3.6,0.4,5.6v1.5h-13.6v2h-0.1c0,0.8,0.1,1.6,0.2,2.3c0.1,0.8,0.3,1.4,0.6,2c0.3,0.6,0.6,1,1,1.4
			c0.4,0.4,1,0.5,1.6,0.5c1.2,0,2-0.4,2.6-1.2c0.5-0.8,0.9-2.1,1.1-3.8h6.2c-0.1,3.1-1,5.5-2.5,7.1c-1.5,1.6-4,2.5-7.2,2.5
			c-2.5,0-4.5-0.4-5.9-1.2c-1.4-0.8-2.4-1.9-3.1-3.3c-0.7-1.4-1.1-2.9-1.2-4.6c-0.1-1.7-0.2-3.4-0.2-5.1
			C154.3,124.6,154.4,122.9,154.7,121.2z M143,112.4c2.8,0,4.9,1.1,6.2,3.3s2,5.8,2,10.8s-0.7,8.6-2,10.8s-3.4,3.2-6.2,3.2
			c-1.4,0-2.6-0.2-3.5-0.8c-1-0.5-1.8-1.4-2.6-2.6h-0.1v2.8h-6.6v-35.7h6.9v11.4h0.1c0.7-1.1,1.6-1.9,2.5-2.4
			C140.6,112.7,141.7,112.4,143,112.4z M131.5,69h2.9l4.9,10H136l-3.1-6.4l-3.1,6.4h-3.2L131.5,69z M115.9,69h2.9l4.9,10h-3.2
			l-3.1-6.4l-3.1,6.4H111L115.9,69z M110.9,113.4c1.4-0.6,3-0.9,5-0.9c2.1,0,3.8,0.2,5.2,0.8c1.4,0.6,2.5,1.5,3.2,2.7
			c0.8,1.2,1.4,2.7,1.7,4.4c0.3,1.8,0.5,3.8,0.5,6.2c0,2.3-0.2,4.3-0.6,6.1c-0.4,1.8-1,3.2-1.8,4.4c-0.8,1.2-1.9,2.1-3.3,2.6
			c-1.4,0.6-3,0.8-5,0.8c-2.1,0-3.8-0.2-5.1-0.8c-1.4-0.6-2.5-1.4-3.2-2.6c-0.8-1.2-1.4-2.7-1.7-4.5s-0.5-3.8-0.5-6.2
			c0-2.1,0.2-4.2,0.5-5.9c0.4-1.8,1-3.2,1.8-4.4C108.4,114.9,109.5,114,110.9,113.4z M100.3,69h2.9l4.9,10h-3.2l-3.1-6.4L98.6,79
			h-3.2L100.3,69z M89.6,113.1h3.5v-7.7h6.7v7.7h4v4.7h-4v14.5c0,1.1,0.2,1.8,0.5,2.3c0.3,0.5,1,0.7,2,0.7h0.8c0.3,0,0.5,0,0.8-0.1
			v4.8c-0.8,0-1.5,0-2.2,0.1c-0.7,0-1.5,0.1-2.3,0.1c-1.3,0-2.4-0.1-3.3-0.3c-0.8-0.2-1.5-0.5-1.9-1.1c-0.5-0.6-0.8-1.3-0.9-2.2
			c-0.2-0.9-0.2-2-0.2-3.4v-15.4h-3.5V113.1z M68.1,120c0.5-1.8,1.3-3.3,2.2-4.4c1-1.1,2.1-1.8,3.4-2.3c1.3-0.4,2.8-0.6,4.4-0.6
			c3.2,0,5.6,0.9,7.2,2.8c1.6,1.9,2.4,4.4,2.4,7.6h-6.6c0.1-1,0-1.6,0-2.2c-0.1-0.6-0.2-1.2-0.5-1.7c-0.2-0.5-0.5-0.9-0.9-1.2
			c-0.4-0.3-0.9-0.5-1.6-0.5c-0.8,0-1.5,0.2-2,0.6c-0.5,0.4-0.9,1-1.2,1.7c-0.3,0.8-0.4,1.7-0.5,2.9c-0.1,1.1-0.1,2.5-0.1,4.1
			c0,1.7,0,3.1,0.1,4.3c0.1,1.2,0.3,2.2,0.5,2.9c0.3,0.8,0.6,1.3,1.1,1.7c0.5,0.4,1.1,0.5,1.9,0.5c1.2,0,2-0.5,2.6-1.5
			c0.5-1,0.8-2.6,0.8-4.8h6.6c0,3.5-0.8,6.2-2.4,8.1c-1.6,1.8-4.2,2.8-7.9,2.8c-1.7,0-3.2-0.2-4.5-0.6c-1.3-0.4-2.4-1.2-3.2-2.2
			c-0.9-1.1-1.5-2.5-1.9-4.3c-0.4-1.8-0.7-4.1-0.7-6.8C67.3,124.1,67.6,121.8,68.1,120z M48.7,139.7c-1.4-0.6-2.5-1.4-3.2-2.6
			c-0.8-1.2-1.4-2.7-1.7-4.5s-0.5-3.8-0.5-6.2c0-2.1,0.2-4.2,0.6-5.9c0.4-1.8,1-3.2,1.8-4.4c0.8-1.2,1.9-2.1,3.3-2.7
			c1.4-0.6,3-0.9,5-0.9c2.1,0,3.8,0.2,5.1,0.8c1.4,0.6,2.5,1.5,3.2,2.7c0.8,1.2,1.4,2.7,1.7,4.4c0.3,1.8,0.5,3.8,0.5,6.2
			c0,2.3-0.2,4.3-0.6,6.1c-0.4,1.8-1,3.2-1.8,4.4c-0.8,1.2-1.9,2.1-3.3,2.6c-1.4,0.5-3,0.8-5,0.8C51.7,140.5,50,140.3,48.7,139.7z
			 M179.8,167.1h-125v-2.5h125V167.1z M192.4,119.1c-0.4,0-0.7-0.1-1.1-0.1h-1.1c-0.6,0-1.2,0.1-1.8,0.2c-0.6,0.2-1.2,0.4-1.7,0.8
			s-0.9,0.9-1.2,1.5s-0.5,1.4-0.5,2.3V140h-6.9v-26.9h6.8v3.6h0.1c0.7-1.3,1.5-2.3,2.5-3.1s2.2-1.2,3.7-1.2h0.6c0.2,0,0.4,0,0.6,0.1
			V119.1z"/>
	</g>
</g>
</svg>
